<?xml version="1.0" encoding="utf-8"?>
<!-- Generator: Adobe Illustrator 16.0.3, SVG Export Plug-In . SVG Version: 6.00 Build 0)  -->
<!DOCTYPE svg PUBLIC "-//W3C//DTD SVG 1.1//EN" "http://www.w3.org/Graphics/SVG/1.1/DTD/svg11.dtd">
<svg version="1.1" id="レイヤー_1" xmlns="http://www.w3.org/2000/svg" xmlns:xlink="http://www.w3.org/1999/xlink" x="0px"
	 y="0px" width="105.996px" height="83.832px" viewBox="0 0 105.996 83.832" enable-background="new 0 0 105.996 83.832"
	 xml:space="preserve">
<g>
	<g>
		<path fill="none" stroke="#000000" stroke-width="4" d="M32.739,17.312c0,1.151-0.143,2.18-0.427,3.085
			c-0.285,0.906-0.669,1.705-1.155,2.396c-0.485,0.692-1.045,1.284-1.679,1.775c-0.634,0.492-1.297,0.896-1.989,1.213
			c-0.692,0.317-1.391,0.547-2.096,0.689c-0.705,0.143-1.368,0.213-1.989,0.213l10.537,9.102h-7.801l-10.518-9.102h-3.629v-5.045
			h11.411c0.634-0.051,1.213-0.184,1.737-0.397c0.524-0.214,0.977-0.501,1.358-0.864c0.381-0.362,0.676-0.799,0.883-1.31
			c0.207-0.511,0.311-1.096,0.311-1.756v-3.183c0-0.285-0.036-0.501-0.107-0.65c-0.071-0.148-0.162-0.258-0.271-0.33
			s-0.227-0.113-0.349-0.126c-0.124-0.013-0.236-0.019-0.34-0.019H9.976v22.782H4.93V10.5c0-0.35,0.064-0.679,0.194-0.99
			C5.253,9.2,5.432,8.928,5.658,8.695c0.226-0.233,0.495-0.414,0.805-0.543S7.11,7.958,7.473,7.958h19.153
			c1.125,0,2.077,0.204,2.853,0.611c0.776,0.408,1.407,0.919,1.892,1.533c0.485,0.615,0.834,1.278,1.048,1.989
			c0.214,0.711,0.32,1.377,0.32,1.999V17.312z"/>
		<path fill="none" stroke="#000000" stroke-width="4" d="M67.01,24.53c0,1.695-0.292,3.254-0.874,4.677
			c-0.582,1.423-1.391,2.652-2.426,3.687c-1.035,1.035-2.261,1.841-3.677,2.416c-1.417,0.576-2.959,0.864-4.628,0.864h-6.831
			c-1.669,0-3.215-0.288-4.638-0.864c-1.423-0.575-2.652-1.381-3.687-2.416c-1.035-1.035-1.847-2.264-2.436-3.687
			c-0.589-1.423-0.883-2.982-0.883-4.677v-5.317c0-1.682,0.294-3.237,0.883-4.667c0.588-1.429,1.4-2.659,2.436-3.687
			c1.035-1.028,2.264-1.834,3.687-2.416c1.423-0.582,2.969-0.874,4.638-0.874h6.831c1.669,0,3.212,0.292,4.628,0.874
			s2.642,1.388,3.677,2.416s1.844,2.258,2.426,3.687c0.582,1.43,0.874,2.985,0.874,4.667V24.53z M61.964,19.213
			c0-0.996-0.158-1.898-0.475-2.707c-0.317-0.808-0.764-1.5-1.339-2.076s-1.268-1.022-2.076-1.339
			c-0.809-0.317-1.698-0.475-2.668-0.475h-6.831c-0.983,0-1.879,0.158-2.688,0.475c-0.809,0.317-1.504,0.764-2.086,1.339
			s-1.032,1.268-1.349,2.076c-0.317,0.809-0.476,1.711-0.476,2.707v5.317c0,0.997,0.158,1.899,0.476,2.707
			c0.317,0.809,0.767,1.501,1.349,2.077s1.277,1.022,2.086,1.339s1.705,0.476,2.688,0.476h6.792c0.983,0,1.879-0.159,2.688-0.476
			s1.504-0.763,2.086-1.339c0.582-0.576,1.031-1.268,1.349-2.077c0.317-0.808,0.475-1.71,0.475-2.707V19.213z"/>
		<path fill="none" stroke="#000000" stroke-width="4" d="M96.914,35.786H78.711c-0.465,0-0.967-0.055-1.504-0.165
			c-0.537-0.11-1.067-0.281-1.591-0.514s-1.025-0.534-1.504-0.902s-0.902-0.815-1.271-1.339s-0.663-1.132-0.883-1.824
			c-0.22-0.692-0.33-1.472-0.33-2.338V15.041c0-0.466,0.055-0.967,0.165-1.504c0.11-0.537,0.281-1.067,0.514-1.591
			c0.233-0.524,0.537-1.025,0.912-1.504c0.375-0.478,0.825-0.902,1.349-1.271s1.128-0.663,1.814-0.883
			c0.686-0.22,1.462-0.33,2.329-0.33h18.203v5.046H78.711c-0.66,0-1.164,0.174-1.514,0.524c-0.349,0.349-0.524,0.867-0.524,1.552
			v13.623c0,0.647,0.178,1.148,0.534,1.504s0.857,0.534,1.504,0.534h18.203V35.786z"/>
		<path fill="none" stroke="#000000" stroke-width="4" d="M10.015,59.091h17.717V47.719h5.046v27.828h-5.046V64.176H10.015v11.372
			H4.969V47.719h5.045V59.091z"/>
		<path fill="none" stroke="#000000" stroke-width="4" d="M63.827,75.547H45.624c-0.698,0-1.462-0.123-2.29-0.369
			c-0.828-0.246-1.595-0.65-2.3-1.213c-0.705-0.563-1.294-1.293-1.766-2.193c-0.472-0.899-0.708-2.002-0.708-3.309V50.262
			c0-0.35,0.064-0.679,0.194-0.99s0.307-0.583,0.534-0.815c0.226-0.233,0.495-0.414,0.805-0.543
			c0.311-0.129,0.647-0.194,1.009-0.194h22.724v5.046H43.606v15.699c0,0.66,0.175,1.164,0.524,1.514
			c0.349,0.349,0.86,0.524,1.533,0.524h18.164V75.547z M61.556,64.176H45.624v-5.084h15.932V64.176z"/>
		<path fill="none" stroke="#000000" stroke-width="4" d="M96.506,57.073c0,1.151-0.143,2.18-0.427,3.085
			c-0.285,0.906-0.669,1.705-1.155,2.396c-0.485,0.692-1.045,1.284-1.679,1.775c-0.634,0.492-1.297,0.896-1.989,1.213
			c-0.692,0.317-1.391,0.547-2.096,0.689c-0.705,0.143-1.368,0.213-1.989,0.213l10.537,9.102h-7.801l-10.518-9.102h-3.629V61.4
			h11.411c0.634-0.051,1.213-0.184,1.737-0.397c0.524-0.214,0.977-0.501,1.358-0.864c0.381-0.362,0.676-0.799,0.883-1.31
			c0.207-0.511,0.311-1.096,0.311-1.756v-3.183c0-0.285-0.036-0.501-0.107-0.65c-0.071-0.148-0.162-0.258-0.271-0.33
			s-0.227-0.113-0.349-0.126c-0.124-0.013-0.236-0.019-0.34-0.019h-16.65v22.782h-5.045V50.262c0-0.35,0.064-0.679,0.194-0.99
			c0.129-0.311,0.307-0.583,0.534-0.815c0.226-0.233,0.495-0.414,0.805-0.543s0.646-0.194,1.009-0.194h19.153
			c1.125,0,2.077,0.204,2.853,0.611c0.776,0.408,1.407,0.919,1.892,1.533c0.485,0.615,0.834,1.278,1.048,1.989
			c0.214,0.711,0.32,1.377,0.32,1.999V57.073z"/>
	</g>
	<g>
		<path d="M32.739,17.312c0,1.151-0.143,2.18-0.427,3.085c-0.285,0.906-0.669,1.705-1.155,2.396
			c-0.485,0.692-1.045,1.284-1.679,1.775c-0.634,0.492-1.297,0.896-1.989,1.213c-0.692,0.317-1.391,0.547-2.096,0.689
			c-0.705,0.143-1.368,0.213-1.989,0.213l10.537,9.102h-7.801l-10.518-9.102h-3.629v-5.045h11.411
			c0.634-0.051,1.213-0.184,1.737-0.397c0.524-0.214,0.977-0.501,1.358-0.864c0.381-0.362,0.676-0.799,0.883-1.31
			c0.207-0.511,0.311-1.096,0.311-1.756v-3.183c0-0.285-0.036-0.501-0.107-0.65c-0.071-0.148-0.162-0.258-0.271-0.33
			s-0.227-0.113-0.349-0.126c-0.124-0.013-0.236-0.019-0.34-0.019H9.976v22.782H4.93V10.5c0-0.35,0.064-0.679,0.194-0.99
			C5.253,9.2,5.432,8.928,5.658,8.695c0.226-0.233,0.495-0.414,0.805-0.543S7.11,7.958,7.473,7.958h19.153
			c1.125,0,2.077,0.204,2.853,0.611c0.776,0.408,1.407,0.919,1.892,1.533c0.485,0.615,0.834,1.278,1.048,1.989
			c0.214,0.711,0.32,1.377,0.32,1.999V17.312z"/>
		<path d="M67.01,24.53c0,1.695-0.292,3.254-0.874,4.677c-0.582,1.423-1.391,2.652-2.426,3.687
			c-1.035,1.035-2.261,1.841-3.677,2.416c-1.417,0.576-2.959,0.864-4.628,0.864h-6.831c-1.669,0-3.215-0.288-4.638-0.864
			c-1.423-0.575-2.652-1.381-3.687-2.416c-1.035-1.035-1.847-2.264-2.436-3.687c-0.589-1.423-0.883-2.982-0.883-4.677v-5.317
			c0-1.682,0.294-3.237,0.883-4.667c0.588-1.429,1.4-2.659,2.436-3.687c1.035-1.028,2.264-1.834,3.687-2.416
			c1.423-0.582,2.969-0.874,4.638-0.874h6.831c1.669,0,3.212,0.292,4.628,0.874s2.642,1.388,3.677,2.416s1.844,2.258,2.426,3.687
			c0.582,1.43,0.874,2.985,0.874,4.667V24.53z M61.964,19.213c0-0.996-0.158-1.898-0.475-2.707c-0.317-0.808-0.764-1.5-1.339-2.076
			s-1.268-1.022-2.076-1.339c-0.809-0.317-1.698-0.475-2.668-0.475h-6.831c-0.983,0-1.879,0.158-2.688,0.475
			c-0.809,0.317-1.504,0.764-2.086,1.339s-1.032,1.268-1.349,2.076c-0.317,0.809-0.476,1.711-0.476,2.707v5.317
			c0,0.997,0.158,1.899,0.476,2.707c0.317,0.809,0.767,1.501,1.349,2.077s1.277,1.022,2.086,1.339s1.705,0.476,2.688,0.476h6.792
			c0.983,0,1.879-0.159,2.688-0.476s1.504-0.763,2.086-1.339c0.582-0.576,1.031-1.268,1.349-2.077
			c0.317-0.808,0.475-1.71,0.475-2.707V19.213z"/>
		<path d="M96.914,35.786H78.711c-0.465,0-0.967-0.055-1.504-0.165c-0.537-0.11-1.067-0.281-1.591-0.514s-1.025-0.534-1.504-0.902
			s-0.902-0.815-1.271-1.339s-0.663-1.132-0.883-1.824c-0.22-0.692-0.33-1.472-0.33-2.338V15.041c0-0.466,0.055-0.967,0.165-1.504
			c0.11-0.537,0.281-1.067,0.514-1.591c0.233-0.524,0.537-1.025,0.912-1.504c0.375-0.478,0.825-0.902,1.349-1.271
			s1.128-0.663,1.814-0.883c0.686-0.22,1.462-0.33,2.329-0.33h18.203v5.046H78.711c-0.66,0-1.164,0.174-1.514,0.524
			c-0.349,0.349-0.524,0.867-0.524,1.552v13.623c0,0.647,0.178,1.148,0.534,1.504s0.857,0.534,1.504,0.534h18.203V35.786z"/>
		<path d="M10.015,59.091h17.717V47.719h5.046v27.828h-5.046V64.176H10.015v11.372H4.969V47.719h5.045V59.091z"/>
		<path d="M63.827,75.547H45.624c-0.698,0-1.462-0.123-2.29-0.369c-0.828-0.246-1.595-0.65-2.3-1.213
			c-0.705-0.563-1.294-1.293-1.766-2.193c-0.472-0.899-0.708-2.002-0.708-3.309V50.262c0-0.35,0.064-0.679,0.194-0.99
			s0.307-0.583,0.534-0.815c0.226-0.233,0.495-0.414,0.805-0.543c0.311-0.129,0.647-0.194,1.009-0.194h22.724v5.046H43.606v15.699
			c0,0.66,0.175,1.164,0.524,1.514c0.349,0.349,0.86,0.524,1.533,0.524h18.164V75.547z M61.556,64.176H45.624v-5.084h15.932V64.176z
			"/>
		<path d="M96.506,57.073c0,1.151-0.143,2.18-0.427,3.085c-0.285,0.906-0.669,1.705-1.155,2.396
			c-0.485,0.692-1.045,1.284-1.679,1.775c-0.634,0.492-1.297,0.896-1.989,1.213c-0.692,0.317-1.391,0.547-2.096,0.689
			c-0.705,0.143-1.368,0.213-1.989,0.213l10.537,9.102h-7.801l-10.518-9.102h-3.629V61.4h11.411
			c0.634-0.051,1.213-0.184,1.737-0.397c0.524-0.214,0.977-0.501,1.358-0.864c0.381-0.362,0.676-0.799,0.883-1.31
			c0.207-0.511,0.311-1.096,0.311-1.756v-3.183c0-0.285-0.036-0.501-0.107-0.65c-0.071-0.148-0.162-0.258-0.271-0.33
			s-0.227-0.113-0.349-0.126c-0.124-0.013-0.236-0.019-0.34-0.019h-16.65v22.782h-5.045V50.262c0-0.35,0.064-0.679,0.194-0.99
			c0.129-0.311,0.307-0.583,0.534-0.815c0.226-0.233,0.495-0.414,0.805-0.543s0.646-0.194,1.009-0.194h19.153
			c1.125,0,2.077,0.204,2.853,0.611c0.776,0.408,1.407,0.919,1.892,1.533c0.485,0.615,0.834,1.278,1.048,1.989
			c0.214,0.711,0.32,1.377,0.32,1.999V57.073z"/>
	</g>
	<g>
		<path fill="#FFFFFF" d="M32.739,17.312c0,1.151-0.143,2.18-0.427,3.085c-0.285,0.906-0.669,1.705-1.155,2.396
			c-0.485,0.692-1.045,1.284-1.679,1.775c-0.634,0.492-1.297,0.896-1.989,1.213c-0.692,0.317-1.391,0.547-2.096,0.689
			c-0.705,0.143-1.368,0.213-1.989,0.213l10.537,9.102h-7.801l-10.518-9.102h-3.629v-5.045h11.411
			c0.634-0.051,1.213-0.184,1.737-0.397c0.524-0.214,0.977-0.501,1.358-0.864c0.381-0.362,0.676-0.799,0.883-1.31
			c0.207-0.511,0.311-1.096,0.311-1.756v-3.183c0-0.285-0.036-0.501-0.107-0.65c-0.071-0.148-0.162-0.258-0.271-0.33
			s-0.227-0.113-0.349-0.126c-0.124-0.013-0.236-0.019-0.34-0.019H9.976v22.782H4.93V10.5c0-0.35,0.064-0.679,0.194-0.99
			C5.253,9.2,5.432,8.928,5.658,8.695c0.226-0.233,0.495-0.414,0.805-0.543S7.11,7.958,7.473,7.958h19.153
			c1.125,0,2.077,0.204,2.853,0.611c0.776,0.408,1.407,0.919,1.892,1.533c0.485,0.615,0.834,1.278,1.048,1.989
			c0.214,0.711,0.32,1.377,0.32,1.999V17.312z"/>
		<path fill="#FFFFFF" d="M67.01,24.53c0,1.695-0.292,3.254-0.874,4.677c-0.582,1.423-1.391,2.652-2.426,3.687
			c-1.035,1.035-2.261,1.841-3.677,2.416c-1.417,0.576-2.959,0.864-4.628,0.864h-6.831c-1.669,0-3.215-0.288-4.638-0.864
			c-1.423-0.575-2.652-1.381-3.687-2.416c-1.035-1.035-1.847-2.264-2.436-3.687c-0.589-1.423-0.883-2.982-0.883-4.677v-5.317
			c0-1.682,0.294-3.237,0.883-4.667c0.588-1.429,1.4-2.659,2.436-3.687c1.035-1.028,2.264-1.834,3.687-2.416
			c1.423-0.582,2.969-0.874,4.638-0.874h6.831c1.669,0,3.212,0.292,4.628,0.874s2.642,1.388,3.677,2.416s1.844,2.258,2.426,3.687
			c0.582,1.43,0.874,2.985,0.874,4.667V24.53z M61.964,19.213c0-0.996-0.158-1.898-0.475-2.707c-0.317-0.808-0.764-1.5-1.339-2.076
			s-1.268-1.022-2.076-1.339c-0.809-0.317-1.698-0.475-2.668-0.475h-6.831c-0.983,0-1.879,0.158-2.688,0.475
			c-0.809,0.317-1.504,0.764-2.086,1.339s-1.032,1.268-1.349,2.076c-0.317,0.809-0.476,1.711-0.476,2.707v5.317
			c0,0.997,0.158,1.899,0.476,2.707c0.317,0.809,0.767,1.501,1.349,2.077s1.277,1.022,2.086,1.339s1.705,0.476,2.688,0.476h6.792
			c0.983,0,1.879-0.159,2.688-0.476s1.504-0.763,2.086-1.339c0.582-0.576,1.031-1.268,1.349-2.077
			c0.317-0.808,0.475-1.71,0.475-2.707V19.213z"/>
		<path fill="#FFFFFF" d="M96.914,35.786H78.711c-0.465,0-0.967-0.055-1.504-0.165c-0.537-0.11-1.067-0.281-1.591-0.514
			s-1.025-0.534-1.504-0.902s-0.902-0.815-1.271-1.339s-0.663-1.132-0.883-1.824c-0.22-0.692-0.33-1.472-0.33-2.338V15.041
			c0-0.466,0.055-0.967,0.165-1.504c0.11-0.537,0.281-1.067,0.514-1.591c0.233-0.524,0.537-1.025,0.912-1.504
			c0.375-0.478,0.825-0.902,1.349-1.271s1.128-0.663,1.814-0.883c0.686-0.22,1.462-0.33,2.329-0.33h18.203v5.046H78.711
			c-0.66,0-1.164,0.174-1.514,0.524c-0.349,0.349-0.524,0.867-0.524,1.552v13.623c0,0.647,0.178,1.148,0.534,1.504
			s0.857,0.534,1.504,0.534h18.203V35.786z"/>
		<path fill="#FFFFFF" d="M10.015,59.091h17.717V47.719h5.046v27.828h-5.046V64.176H10.015v11.372H4.969V47.719h5.045V59.091z"/>
		<path fill="#FFFFFF" d="M63.827,75.547H45.624c-0.698,0-1.462-0.123-2.29-0.369c-0.828-0.246-1.595-0.65-2.3-1.213
			c-0.705-0.563-1.294-1.293-1.766-2.193c-0.472-0.899-0.708-2.002-0.708-3.309V50.262c0-0.35,0.064-0.679,0.194-0.99
			s0.307-0.583,0.534-0.815c0.226-0.233,0.495-0.414,0.805-0.543c0.311-0.129,0.647-0.194,1.009-0.194h22.724v5.046H43.606v15.699
			c0,0.66,0.175,1.164,0.524,1.514c0.349,0.349,0.86,0.524,1.533,0.524h18.164V75.547z M61.556,64.176H45.624v-5.084h15.932V64.176z
			"/>
		<path fill="#FFFFFF" d="M96.506,57.073c0,1.151-0.143,2.18-0.427,3.085c-0.285,0.906-0.669,1.705-1.155,2.396
			c-0.485,0.692-1.045,1.284-1.679,1.775c-0.634,0.492-1.297,0.896-1.989,1.213c-0.692,0.317-1.391,0.547-2.096,0.689
			c-0.705,0.143-1.368,0.213-1.989,0.213l10.537,9.102h-7.801l-10.518-9.102h-3.629V61.4h11.411
			c0.634-0.051,1.213-0.184,1.737-0.397c0.524-0.214,0.977-0.501,1.358-0.864c0.381-0.362,0.676-0.799,0.883-1.31
			c0.207-0.511,0.311-1.096,0.311-1.756v-3.183c0-0.285-0.036-0.501-0.107-0.65c-0.071-0.148-0.162-0.258-0.271-0.33
			s-0.227-0.113-0.349-0.126c-0.124-0.013-0.236-0.019-0.34-0.019h-16.65v22.782h-5.045V50.262c0-0.35,0.064-0.679,0.194-0.99
			c0.129-0.311,0.307-0.583,0.534-0.815c0.226-0.233,0.495-0.414,0.805-0.543s0.646-0.194,1.009-0.194h19.153
			c1.125,0,2.077,0.204,2.853,0.611c0.776,0.408,1.407,0.919,1.892,1.533c0.485,0.615,0.834,1.278,1.048,1.989
			c0.214,0.711,0.32,1.377,0.32,1.999V57.073z"/>
	</g>
</g>
</svg>
