<?xml version="1.0" encoding="utf-8"?>
<!-- Generator: Adobe Illustrator 16.0.3, SVG Export Plug-In . SVG Version: 6.00 Build 0)  -->
<!DOCTYPE svg PUBLIC "-//W3C//DTD SVG 1.1//EN" "http://www.w3.org/Graphics/SVG/1.1/DTD/svg11.dtd">
<svg version="1.1" id="レイヤー_1" xmlns="http://www.w3.org/2000/svg" xmlns:xlink="http://www.w3.org/1999/xlink" x="0px"
	 y="0px" width="209.701px" height="208.209px" viewBox="0 0 209.701 208.209" enable-background="new 0 0 209.701 208.209"
	 xml:space="preserve">
<circle fill="#FF330C" cx="105.587" cy="104.209" r="100"/>
<g>
	<path d="M106.271,111.115c0,2.063-0.264,4.014-0.791,5.854s-1.271,3.545-2.232,5.115c-0.961,1.57-2.098,2.977-3.41,4.219
		c-1.313,1.242-2.748,2.303-4.307,3.182c-1.559,0.879-3.217,1.553-4.975,2.021s-3.551,0.703-5.379,0.703H68.688
		c-1.852,0-3.656-0.234-5.414-0.703s-3.416-1.143-4.975-2.021c-1.559-0.879-2.994-1.939-4.307-3.182
		c-1.313-1.242-2.443-2.648-3.393-4.219s-1.688-3.275-2.215-5.115s-0.791-3.791-0.791-5.854v-8.227c0-3.094,0.58-5.93,1.74-8.508
		s2.712-4.799,4.658-6.662c1.945-1.863,4.189-3.316,6.732-4.359c2.543-1.043,5.197-1.564,7.963-1.564h16.488
		c1.828,0,3.621,0.234,5.379,0.703s3.416,1.143,4.975,2.021c1.559,0.879,2.994,1.939,4.307,3.182
		c1.313,1.242,2.449,2.648,3.41,4.219c0.961,1.57,1.705,3.275,2.232,5.115s0.791,3.791,0.791,5.854V111.115z M97.06,102.889
		c0-1.805-0.329-3.445-0.984-4.922c-0.656-1.477-1.529-2.742-2.619-3.797s-2.35-1.863-3.779-2.426c-1.43-0.563-2.93-0.832-4.5-0.809
		H68.688c-1.524-0.023-3.006,0.24-4.447,0.791s-2.719,1.348-3.832,2.391c-1.113,1.043-2.004,2.309-2.672,3.797
		s-1.002,3.146-1.002,4.975v8.227c0,1.828,0.328,3.48,0.984,4.957c0.656,1.477,1.535,2.736,2.637,3.779
		c1.102,1.043,2.373,1.846,3.814,2.408s2.947,0.832,4.518,0.809h16.488c1.805,0,3.439-0.299,4.904-0.896
		c1.464-0.598,2.712-1.424,3.744-2.479c1.031-1.055,1.828-2.314,2.391-3.779s0.844-3.064,0.844-4.799V102.889z M93.087,96.209
		c0.352,0.516,0.585,1.072,0.703,1.67c0.117,0.598,0.117,1.184,0,1.758c-0.118,0.574-0.346,1.113-0.686,1.617
		c-0.34,0.504-0.779,0.932-1.318,1.283l-24.68,16.488c-0.399,0.305-0.809,0.516-1.23,0.633s-0.856,0.176-1.301,0.176
		c-0.75,0-1.465-0.176-2.145-0.527c-0.68-0.352-1.23-0.855-1.652-1.512c-0.352-0.516-0.586-1.072-0.703-1.67
		c-0.118-0.598-0.123-1.184-0.018-1.758s0.322-1.113,0.65-1.617c0.328-0.504,0.761-0.932,1.301-1.283l24.75-16.488
		c0.515-0.352,1.072-0.586,1.67-0.703s1.183-0.117,1.758,0c0.574,0.117,1.113,0.34,1.617,0.668
		C92.308,95.271,92.735,95.693,93.087,96.209z"/>
	<path d="M157.071,119.377c0,2.367-0.428,4.365-1.283,5.994c-0.856,1.629-1.922,2.953-3.199,3.973
		c-1.278,1.02-2.667,1.752-4.166,2.197c-1.5,0.445-2.896,0.668-4.184,0.668h-29.32v-9.141h29.32c1.242,0,2.162-0.316,2.76-0.949
		s0.896-1.547,0.896-2.742v-7.77h-32.977v-9.211h32.977v-7.699c0-2.508-1.219-3.762-3.656-3.762h-29.32v-9.141h29.32
		c1.569,0,2.976,0.199,4.219,0.598c1.242,0.398,2.338,0.932,3.287,1.6s1.763,1.436,2.443,2.303c0.68,0.867,1.23,1.775,1.652,2.725
		s0.732,1.91,0.932,2.883c0.198,0.973,0.299,1.881,0.299,2.725V119.377z"/>
</g>
</svg>
