<?xml version="1.0" encoding="utf-8"?>
<!-- Generator: Adobe Illustrator 16.0.3, SVG Export Plug-In . SVG Version: 6.00 Build 0)  -->
<!DOCTYPE svg PUBLIC "-//W3C//DTD SVG 1.1//EN" "http://www.w3.org/Graphics/SVG/1.1/DTD/svg11.dtd">
<svg version="1.1" id="レイヤー_1" xmlns="http://www.w3.org/2000/svg" xmlns:xlink="http://www.w3.org/1999/xlink" x="0px"
	 y="0px" width="253.246px" height="61.763px" viewBox="0 0 253.246 61.763" enable-background="new 0 0 253.246 61.763"
	 xml:space="preserve">
<g>
	<g>
		<path fill="none" stroke="#000000" stroke-width="5" d="M41.665,22.017c0,1.449-0.179,2.743-0.537,3.882
			c-0.358,1.14-0.842,2.145-1.453,3.015c-0.61,0.871-1.314,1.616-2.112,2.234c-0.798,0.619-1.632,1.127-2.502,1.526
			c-0.871,0.399-1.75,0.688-2.637,0.867c-0.887,0.179-1.721,0.269-2.502,0.269l13.257,11.45h-9.814l-13.232-11.45h-4.565v-6.348
			h14.355c0.797-0.065,1.526-0.232,2.185-0.5s1.229-0.63,1.709-1.086c0.48-0.456,0.85-1.005,1.111-1.648
			c0.26-0.643,0.391-1.379,0.391-2.209v-4.004c0-0.358-0.045-0.63-0.134-0.818c-0.09-0.187-0.204-0.325-0.342-0.415
			c-0.139-0.089-0.285-0.142-0.439-0.159c-0.155-0.016-0.297-0.024-0.427-0.024H13.027v28.662H6.679V13.447
			c0-0.439,0.081-0.854,0.244-1.245c0.163-0.391,0.386-0.732,0.671-1.025c0.285-0.293,0.623-0.521,1.013-0.684
			c0.391-0.163,0.813-0.244,1.27-0.244h24.097c1.416,0,2.612,0.256,3.589,0.769s1.77,1.156,2.38,1.929
			c0.61,0.773,1.05,1.607,1.318,2.502c0.269,0.896,0.403,1.733,0.403,2.515V22.017z"/>
		<path fill="none" stroke="#000000" stroke-width="5" d="M84.78,31.099c0,2.132-0.366,4.094-1.099,5.884
			c-0.732,1.791-1.75,3.337-3.052,4.639c-1.302,1.302-2.844,2.315-4.626,3.04s-3.723,1.086-5.823,1.086h-8.594
			c-2.1,0-4.045-0.362-5.835-1.086c-1.791-0.724-3.337-1.737-4.639-3.04c-1.302-1.302-2.324-2.848-3.064-4.639
			c-0.741-1.79-1.111-3.751-1.111-5.884v-6.689c0-2.116,0.37-4.073,1.111-5.872c0.74-1.798,1.762-3.345,3.064-4.639
			c1.302-1.294,2.848-2.307,4.639-3.04c1.79-0.732,3.735-1.099,5.835-1.099h8.594c2.1,0,4.041,0.366,5.823,1.099
			s3.324,1.746,4.626,3.04c1.302,1.294,2.319,2.84,3.052,4.639c0.732,1.799,1.099,3.756,1.099,5.872V31.099z M78.432,24.409
			c0-1.253-0.2-2.388-0.598-3.406c-0.399-1.017-0.96-1.888-1.685-2.612c-0.725-0.724-1.595-1.286-2.612-1.685
			c-1.018-0.398-2.136-0.598-3.357-0.598h-8.594c-1.237,0-2.364,0.2-3.381,0.598c-1.018,0.399-1.892,0.96-2.625,1.685
			c-0.732,0.725-1.298,1.595-1.697,2.612c-0.399,1.018-0.598,2.153-0.598,3.406v6.689c0,1.253,0.199,2.389,0.598,3.406
			c0.398,1.018,0.964,1.888,1.697,2.612c0.732,0.725,1.607,1.286,2.625,1.685c1.017,0.399,2.144,0.598,3.381,0.598h8.545
			c1.237,0,2.364-0.199,3.381-0.598c1.017-0.398,1.892-0.96,2.625-1.685c0.732-0.724,1.298-1.595,1.697-2.612
			c0.398-1.017,0.598-2.152,0.598-3.406V24.409z"/>
		<path fill="none" stroke="#000000" stroke-width="5" d="M122.402,45.259h-22.9c-0.586,0-1.217-0.069-1.892-0.208
			c-0.676-0.138-1.343-0.354-2.002-0.647s-1.29-0.671-1.892-1.135c-0.603-0.464-1.135-1.025-1.599-1.685s-0.834-1.424-1.111-2.295
			c-0.277-0.871-0.415-1.851-0.415-2.942V19.16c0-0.586,0.069-1.216,0.208-1.892c0.138-0.675,0.354-1.343,0.647-2.002
			s0.675-1.29,1.147-1.892c0.472-0.602,1.038-1.135,1.697-1.599s1.42-0.834,2.283-1.111c0.862-0.276,1.839-0.415,2.93-0.415h22.9
			v6.348h-22.9c-0.83,0-1.465,0.22-1.904,0.659s-0.659,1.091-0.659,1.953v17.139c0,0.814,0.224,1.445,0.671,1.892
			c0.447,0.448,1.078,0.671,1.892,0.671h22.9V45.259z"/>
		<path fill="none" stroke="#000000" stroke-width="5" d="M134.804,24.556h22.29V10.249h6.348v35.01h-6.348V30.952h-22.29v14.307
			h-6.348v-35.01h6.348V24.556z"/>
		<path fill="none" stroke="#000000" stroke-width="5" d="M202.504,45.259h-22.9c-0.879,0-1.839-0.154-2.881-0.464
			c-1.042-0.309-2.006-0.818-2.893-1.526c-0.887-0.708-1.628-1.627-2.222-2.759c-0.594-1.131-0.891-2.519-0.891-4.163v-22.9
			c0-0.439,0.081-0.854,0.244-1.245c0.163-0.391,0.386-0.732,0.671-1.025c0.285-0.293,0.623-0.521,1.013-0.684
			c0.391-0.163,0.813-0.244,1.27-0.244h28.589v6.348h-25.439v19.751c0,0.83,0.22,1.465,0.659,1.904s1.082,0.659,1.929,0.659h22.852
			V45.259z M199.648,30.952h-20.044v-6.396h20.044V30.952z"/>
		<path fill="none" stroke="#000000" stroke-width="5" d="M243.618,22.017c0,1.449-0.179,2.743-0.537,3.882
			c-0.358,1.14-0.842,2.145-1.453,3.015c-0.61,0.871-1.314,1.616-2.112,2.234c-0.798,0.619-1.632,1.127-2.502,1.526
			c-0.871,0.399-1.75,0.688-2.637,0.867c-0.887,0.179-1.721,0.269-2.502,0.269l13.257,11.45h-9.814l-13.232-11.45h-4.565v-6.348
			h14.355c0.797-0.065,1.526-0.232,2.185-0.5s1.229-0.63,1.709-1.086c0.48-0.456,0.85-1.005,1.111-1.648
			c0.26-0.643,0.391-1.379,0.391-2.209v-4.004c0-0.358-0.045-0.63-0.134-0.818c-0.09-0.187-0.204-0.325-0.342-0.415
			c-0.139-0.089-0.285-0.142-0.439-0.159c-0.155-0.016-0.297-0.024-0.427-0.024H214.98v28.662h-6.348V13.447
			c0-0.439,0.081-0.854,0.244-1.245c0.163-0.391,0.386-0.732,0.671-1.025c0.285-0.293,0.623-0.521,1.013-0.684
			c0.391-0.163,0.813-0.244,1.27-0.244h24.097c1.416,0,2.612,0.256,3.589,0.769s1.77,1.156,2.38,1.929
			c0.61,0.773,1.05,1.607,1.318,2.502c0.269,0.896,0.403,1.733,0.403,2.515V22.017z"/>
	</g>
	<g>
		<path d="M41.665,22.017c0,1.449-0.179,2.743-0.537,3.882c-0.358,1.14-0.842,2.145-1.453,3.015
			c-0.61,0.871-1.314,1.616-2.112,2.234c-0.798,0.619-1.632,1.127-2.502,1.526c-0.871,0.399-1.75,0.688-2.637,0.867
			c-0.887,0.179-1.721,0.269-2.502,0.269l13.257,11.45h-9.814l-13.232-11.45h-4.565v-6.348h14.355
			c0.797-0.065,1.526-0.232,2.185-0.5s1.229-0.63,1.709-1.086c0.48-0.456,0.85-1.005,1.111-1.648
			c0.26-0.643,0.391-1.379,0.391-2.209v-4.004c0-0.358-0.045-0.63-0.134-0.818c-0.09-0.187-0.204-0.325-0.342-0.415
			c-0.139-0.089-0.285-0.142-0.439-0.159c-0.155-0.016-0.297-0.024-0.427-0.024H13.027v28.662H6.679V13.447
			c0-0.439,0.081-0.854,0.244-1.245c0.163-0.391,0.386-0.732,0.671-1.025c0.285-0.293,0.623-0.521,1.013-0.684
			c0.391-0.163,0.813-0.244,1.27-0.244h24.097c1.416,0,2.612,0.256,3.589,0.769s1.77,1.156,2.38,1.929
			c0.61,0.773,1.05,1.607,1.318,2.502c0.269,0.896,0.403,1.733,0.403,2.515V22.017z"/>
		<path d="M84.78,31.099c0,2.132-0.366,4.094-1.099,5.884c-0.732,1.791-1.75,3.337-3.052,4.639c-1.302,1.302-2.844,2.315-4.626,3.04
			s-3.723,1.086-5.823,1.086h-8.594c-2.1,0-4.045-0.362-5.835-1.086c-1.791-0.724-3.337-1.737-4.639-3.04
			c-1.302-1.302-2.324-2.848-3.064-4.639c-0.741-1.79-1.111-3.751-1.111-5.884v-6.689c0-2.116,0.37-4.073,1.111-5.872
			c0.74-1.798,1.762-3.345,3.064-4.639c1.302-1.294,2.848-2.307,4.639-3.04c1.79-0.732,3.735-1.099,5.835-1.099h8.594
			c2.1,0,4.041,0.366,5.823,1.099s3.324,1.746,4.626,3.04c1.302,1.294,2.319,2.84,3.052,4.639c0.732,1.799,1.099,3.756,1.099,5.872
			V31.099z M78.432,24.409c0-1.253-0.2-2.388-0.598-3.406c-0.399-1.017-0.96-1.888-1.685-2.612
			c-0.725-0.724-1.595-1.286-2.612-1.685c-1.018-0.398-2.136-0.598-3.357-0.598h-8.594c-1.237,0-2.364,0.2-3.381,0.598
			c-1.018,0.399-1.892,0.96-2.625,1.685c-0.732,0.725-1.298,1.595-1.697,2.612c-0.399,1.018-0.598,2.153-0.598,3.406v6.689
			c0,1.253,0.199,2.389,0.598,3.406c0.398,1.018,0.964,1.888,1.697,2.612c0.732,0.725,1.607,1.286,2.625,1.685
			c1.017,0.399,2.144,0.598,3.381,0.598h8.545c1.237,0,2.364-0.199,3.381-0.598c1.017-0.398,1.892-0.96,2.625-1.685
			c0.732-0.724,1.298-1.595,1.697-2.612c0.398-1.017,0.598-2.152,0.598-3.406V24.409z"/>
		<path d="M122.402,45.259h-22.9c-0.586,0-1.217-0.069-1.892-0.208c-0.676-0.138-1.343-0.354-2.002-0.647s-1.29-0.671-1.892-1.135
			c-0.603-0.464-1.135-1.025-1.599-1.685s-0.834-1.424-1.111-2.295c-0.277-0.871-0.415-1.851-0.415-2.942V19.16
			c0-0.586,0.069-1.216,0.208-1.892c0.138-0.675,0.354-1.343,0.647-2.002s0.675-1.29,1.147-1.892
			c0.472-0.602,1.038-1.135,1.697-1.599s1.42-0.834,2.283-1.111c0.862-0.276,1.839-0.415,2.93-0.415h22.9v6.348h-22.9
			c-0.83,0-1.465,0.22-1.904,0.659s-0.659,1.091-0.659,1.953v17.139c0,0.814,0.224,1.445,0.671,1.892
			c0.447,0.448,1.078,0.671,1.892,0.671h22.9V45.259z"/>
		<path d="M134.804,24.556h22.29V10.249h6.348v35.01h-6.348V30.952h-22.29v14.307h-6.348v-35.01h6.348V24.556z"/>
		<path d="M202.504,45.259h-22.9c-0.879,0-1.839-0.154-2.881-0.464c-1.042-0.309-2.006-0.818-2.893-1.526
			c-0.887-0.708-1.628-1.627-2.222-2.759c-0.594-1.131-0.891-2.519-0.891-4.163v-22.9c0-0.439,0.081-0.854,0.244-1.245
			c0.163-0.391,0.386-0.732,0.671-1.025c0.285-0.293,0.623-0.521,1.013-0.684c0.391-0.163,0.813-0.244,1.27-0.244h28.589v6.348
			h-25.439v19.751c0,0.83,0.22,1.465,0.659,1.904s1.082,0.659,1.929,0.659h22.852V45.259z M199.648,30.952h-20.044v-6.396h20.044
			V30.952z"/>
		<path d="M243.618,22.017c0,1.449-0.179,2.743-0.537,3.882c-0.358,1.14-0.842,2.145-1.453,3.015
			c-0.61,0.871-1.314,1.616-2.112,2.234c-0.798,0.619-1.632,1.127-2.502,1.526c-0.871,0.399-1.75,0.688-2.637,0.867
			c-0.887,0.179-1.721,0.269-2.502,0.269l13.257,11.45h-9.814l-13.232-11.45h-4.565v-6.348h14.355
			c0.797-0.065,1.526-0.232,2.185-0.5s1.229-0.63,1.709-1.086c0.48-0.456,0.85-1.005,1.111-1.648
			c0.26-0.643,0.391-1.379,0.391-2.209v-4.004c0-0.358-0.045-0.63-0.134-0.818c-0.09-0.187-0.204-0.325-0.342-0.415
			c-0.139-0.089-0.285-0.142-0.439-0.159c-0.155-0.016-0.297-0.024-0.427-0.024H214.98v28.662h-6.348V13.447
			c0-0.439,0.081-0.854,0.244-1.245c0.163-0.391,0.386-0.732,0.671-1.025c0.285-0.293,0.623-0.521,1.013-0.684
			c0.391-0.163,0.813-0.244,1.27-0.244h24.097c1.416,0,2.612,0.256,3.589,0.769s1.77,1.156,2.38,1.929
			c0.61,0.773,1.05,1.607,1.318,2.502c0.269,0.896,0.403,1.733,0.403,2.515V22.017z"/>
	</g>
	<g>
		<path fill="#FFFFFF" d="M41.665,22.017c0,1.449-0.179,2.743-0.537,3.882c-0.358,1.14-0.842,2.145-1.453,3.015
			c-0.61,0.871-1.314,1.616-2.112,2.234c-0.798,0.619-1.632,1.127-2.502,1.526c-0.871,0.399-1.75,0.688-2.637,0.867
			c-0.887,0.179-1.721,0.269-2.502,0.269l13.257,11.45h-9.814l-13.232-11.45h-4.565v-6.348h14.355
			c0.797-0.065,1.526-0.232,2.185-0.5s1.229-0.63,1.709-1.086c0.48-0.456,0.85-1.005,1.111-1.648
			c0.26-0.643,0.391-1.379,0.391-2.209v-4.004c0-0.358-0.045-0.63-0.134-0.818c-0.09-0.187-0.204-0.325-0.342-0.415
			c-0.139-0.089-0.285-0.142-0.439-0.159c-0.155-0.016-0.297-0.024-0.427-0.024H13.027v28.662H6.679V13.447
			c0-0.439,0.081-0.854,0.244-1.245c0.163-0.391,0.386-0.732,0.671-1.025c0.285-0.293,0.623-0.521,1.013-0.684
			c0.391-0.163,0.813-0.244,1.27-0.244h24.097c1.416,0,2.612,0.256,3.589,0.769s1.77,1.156,2.38,1.929
			c0.61,0.773,1.05,1.607,1.318,2.502c0.269,0.896,0.403,1.733,0.403,2.515V22.017z"/>
		<path fill="#FFFFFF" d="M84.78,31.099c0,2.132-0.366,4.094-1.099,5.884c-0.732,1.791-1.75,3.337-3.052,4.639
			c-1.302,1.302-2.844,2.315-4.626,3.04s-3.723,1.086-5.823,1.086h-8.594c-2.1,0-4.045-0.362-5.835-1.086
			c-1.791-0.724-3.337-1.737-4.639-3.04c-1.302-1.302-2.324-2.848-3.064-4.639c-0.741-1.79-1.111-3.751-1.111-5.884v-6.689
			c0-2.116,0.37-4.073,1.111-5.872c0.74-1.798,1.762-3.345,3.064-4.639c1.302-1.294,2.848-2.307,4.639-3.04
			c1.79-0.732,3.735-1.099,5.835-1.099h8.594c2.1,0,4.041,0.366,5.823,1.099s3.324,1.746,4.626,3.04
			c1.302,1.294,2.319,2.84,3.052,4.639c0.732,1.799,1.099,3.756,1.099,5.872V31.099z M78.432,24.409c0-1.253-0.2-2.388-0.598-3.406
			c-0.399-1.017-0.96-1.888-1.685-2.612c-0.725-0.724-1.595-1.286-2.612-1.685c-1.018-0.398-2.136-0.598-3.357-0.598h-8.594
			c-1.237,0-2.364,0.2-3.381,0.598c-1.018,0.399-1.892,0.96-2.625,1.685c-0.732,0.725-1.298,1.595-1.697,2.612
			c-0.399,1.018-0.598,2.153-0.598,3.406v6.689c0,1.253,0.199,2.389,0.598,3.406c0.398,1.018,0.964,1.888,1.697,2.612
			c0.732,0.725,1.607,1.286,2.625,1.685c1.017,0.399,2.144,0.598,3.381,0.598h8.545c1.237,0,2.364-0.199,3.381-0.598
			c1.017-0.398,1.892-0.96,2.625-1.685c0.732-0.724,1.298-1.595,1.697-2.612c0.398-1.017,0.598-2.152,0.598-3.406V24.409z"/>
		<path fill="#FFFFFF" d="M122.402,45.259h-22.9c-0.586,0-1.217-0.069-1.892-0.208c-0.676-0.138-1.343-0.354-2.002-0.647
			s-1.29-0.671-1.892-1.135c-0.603-0.464-1.135-1.025-1.599-1.685s-0.834-1.424-1.111-2.295c-0.277-0.871-0.415-1.851-0.415-2.942
			V19.16c0-0.586,0.069-1.216,0.208-1.892c0.138-0.675,0.354-1.343,0.647-2.002s0.675-1.29,1.147-1.892
			c0.472-0.602,1.038-1.135,1.697-1.599s1.42-0.834,2.283-1.111c0.862-0.276,1.839-0.415,2.93-0.415h22.9v6.348h-22.9
			c-0.83,0-1.465,0.22-1.904,0.659s-0.659,1.091-0.659,1.953v17.139c0,0.814,0.224,1.445,0.671,1.892
			c0.447,0.448,1.078,0.671,1.892,0.671h22.9V45.259z"/>
		<path fill="#FFFFFF" d="M134.804,24.556h22.29V10.249h6.348v35.01h-6.348V30.952h-22.29v14.307h-6.348v-35.01h6.348V24.556z"/>
		<path fill="#FFFFFF" d="M202.504,45.259h-22.9c-0.879,0-1.839-0.154-2.881-0.464c-1.042-0.309-2.006-0.818-2.893-1.526
			c-0.887-0.708-1.628-1.627-2.222-2.759c-0.594-1.131-0.891-2.519-0.891-4.163v-22.9c0-0.439,0.081-0.854,0.244-1.245
			c0.163-0.391,0.386-0.732,0.671-1.025c0.285-0.293,0.623-0.521,1.013-0.684c0.391-0.163,0.813-0.244,1.27-0.244h28.589v6.348
			h-25.439v19.751c0,0.83,0.22,1.465,0.659,1.904s1.082,0.659,1.929,0.659h22.852V45.259z M199.648,30.952h-20.044v-6.396h20.044
			V30.952z"/>
		<path fill="#FFFFFF" d="M243.618,22.017c0,1.449-0.179,2.743-0.537,3.882c-0.358,1.14-0.842,2.145-1.453,3.015
			c-0.61,0.871-1.314,1.616-2.112,2.234c-0.798,0.619-1.632,1.127-2.502,1.526c-0.871,0.399-1.75,0.688-2.637,0.867
			c-0.887,0.179-1.721,0.269-2.502,0.269l13.257,11.45h-9.814l-13.232-11.45h-4.565v-6.348h14.355
			c0.797-0.065,1.526-0.232,2.185-0.5s1.229-0.63,1.709-1.086c0.48-0.456,0.85-1.005,1.111-1.648
			c0.26-0.643,0.391-1.379,0.391-2.209v-4.004c0-0.358-0.045-0.63-0.134-0.818c-0.09-0.187-0.204-0.325-0.342-0.415
			c-0.139-0.089-0.285-0.142-0.439-0.159c-0.155-0.016-0.297-0.024-0.427-0.024H214.98v28.662h-6.348V13.447
			c0-0.439,0.081-0.854,0.244-1.245c0.163-0.391,0.386-0.732,0.671-1.025c0.285-0.293,0.623-0.521,1.013-0.684
			c0.391-0.163,0.813-0.244,1.27-0.244h24.097c1.416,0,2.612,0.256,3.589,0.769s1.77,1.156,2.38,1.929
			c0.61,0.773,1.05,1.607,1.318,2.502c0.269,0.896,0.403,1.733,0.403,2.515V22.017z"/>
	</g>
</g>
</svg>
