<?xml version="1.0" encoding="utf-8"?>
<!-- Generator: Adobe Illustrator 16.0.3, SVG Export Plug-In . SVG Version: 6.00 Build 0)  -->
<!DOCTYPE svg PUBLIC "-//W3C//DTD SVG 1.1//EN" "http://www.w3.org/Graphics/SVG/1.1/DTD/svg11.dtd">
<svg version="1.1" id="レイヤー_1" xmlns="http://www.w3.org/2000/svg" xmlns:xlink="http://www.w3.org/1999/xlink" x="0px"
	 y="0px" width="450px" height="50px" viewBox="0 0 450 50" enable-background="new 0 0 450 50" xml:space="preserve">
<g>
	<g>
		<path fill="none" stroke="#000000" stroke-width="5" d="M48.743,42.511h-22.9c-0.586,0-1.217-0.069-1.892-0.208
			c-0.676-0.138-1.344-0.354-2.002-0.646c-0.66-0.293-1.291-0.672-1.893-1.135c-0.603-0.465-1.135-1.025-1.6-1.686
			c-0.463-0.658-0.834-1.424-1.11-2.295c-0.277-0.87-0.415-1.851-0.415-2.941V16.412c0-0.586,0.069-1.216,0.208-1.892
			c0.138-0.675,0.354-1.343,0.647-2.002s0.675-1.29,1.147-1.892c0.472-0.602,1.037-1.135,1.697-1.599
			c0.658-0.464,1.42-0.834,2.282-1.111c0.862-0.276,1.839-0.415,2.93-0.415h22.9v6.348h-22.9c-0.83,0-1.465,0.22-1.904,0.659
			s-0.659,1.091-0.659,1.953V33.6c0,0.814,0.224,1.445,0.672,1.893c0.447,0.447,1.078,0.671,1.892,0.671h22.9V42.511z"/>
		<path fill="none" stroke="#000000" stroke-width="5" d="M89.734,19.269c0,1.449-0.18,2.742-0.537,3.882
			c-0.358,1.14-0.842,2.145-1.453,3.016c-0.609,0.871-1.314,1.615-2.111,2.233c-0.798,0.618-1.632,1.128-2.502,1.526
			c-0.871,0.398-1.75,0.688-2.637,0.866c-0.888,0.179-1.722,0.269-2.503,0.269l13.257,11.45h-9.814l-13.232-11.45h-4.565v-6.348
			h14.355c0.798-0.065,1.526-0.231,2.185-0.501c0.66-0.268,1.229-0.63,1.709-1.086c0.48-0.455,0.851-1.005,1.111-1.648
			c0.26-0.643,0.391-1.379,0.391-2.209v-4.004c0-0.358-0.045-0.63-0.135-0.818c-0.09-0.187-0.203-0.325-0.342-0.415
			c-0.139-0.089-0.285-0.142-0.439-0.159c-0.154-0.016-0.297-0.024-0.427-0.024H61.097v28.662h-6.348V10.699
			c0-0.439,0.081-0.854,0.244-1.245s0.386-0.732,0.671-1.025s0.623-0.521,1.014-0.684c0.391-0.163,0.813-0.244,1.27-0.244h24.097
			c1.416,0,2.612,0.256,3.589,0.769s1.77,1.156,2.381,1.929c0.609,0.773,1.049,1.607,1.318,2.502
			c0.268,0.896,0.402,1.733,0.402,2.515V19.269z"/>
		<path fill="none" stroke="#000000" stroke-width="5" d="M102.503,42.511h-6.348V7.501h6.348V42.511z"/>
		<path fill="none" stroke="#000000" stroke-width="5" d="M150.672,42.511h-6.396v-20.85l-11.255,19.8
			c-0.276,0.505-0.663,0.887-1.159,1.147c-0.497,0.261-1.03,0.391-1.6,0.391c-0.554,0-1.07-0.13-1.551-0.391
			s-0.858-0.643-1.135-1.147l-11.304-19.8v20.85h-6.348v-32.3c0-0.732,0.216-1.383,0.647-1.953c0.431-0.569,0.996-0.952,1.696-1.147
			c0.342-0.081,0.684-0.11,1.025-0.085s0.671,0.098,0.989,0.22c0.316,0.122,0.605,0.293,0.866,0.513s0.479,0.484,0.659,0.793
			l14.453,25.122l14.453-25.122c0.374-0.618,0.891-1.058,1.551-1.318c0.658-0.26,1.346-0.301,2.063-0.122
			c0.684,0.195,1.245,0.578,1.685,1.147c0.439,0.57,0.659,1.221,0.659,1.953V42.511z"/>
		<path fill="none" stroke="#000000" stroke-width="5" d="M192.981,34.82c0,0.781-0.134,1.619-0.403,2.515
			c-0.268,0.896-0.707,1.726-1.318,2.49c-0.609,0.765-1.403,1.403-2.38,1.917c-0.977,0.512-2.173,0.769-3.589,0.769h-24.097
			c-0.456,0-0.879-0.081-1.27-0.244s-0.729-0.386-1.013-0.671c-0.285-0.285-0.51-0.623-0.672-1.014
			c-0.163-0.391-0.244-0.813-0.244-1.27V10.699c0-0.439,0.081-0.854,0.244-1.245c0.162-0.391,0.387-0.732,0.672-1.025
			c0.284-0.293,0.622-0.521,1.013-0.684c0.391-0.163,0.813-0.244,1.27-0.244h21.24c0.781,0,1.619,0.139,2.515,0.415
			c0.895,0.277,1.729,0.72,2.502,1.331s1.416,1.404,1.93,2.38c0.512,0.977,0.769,2.173,0.769,3.589v1.196
			c0,1.123-0.188,2.331-0.562,3.626c-0.375,1.293-0.977,2.519-1.807,3.674c0.716,0.439,1.387,0.969,2.014,1.587
			c0.627,0.619,1.176,1.335,1.648,2.148c0.472,0.814,0.846,1.733,1.123,2.759c0.276,1.025,0.415,2.157,0.415,3.394V34.82z
			 M186.634,33.6c0-0.83-0.13-1.574-0.391-2.234c-0.261-0.658-0.627-1.225-1.099-1.696c-0.473-0.472-1.042-0.834-1.709-1.087
			c-0.668-0.252-1.416-0.378-2.246-0.378h-14.307v-6.396h11.45c0.83,0,1.579-0.126,2.246-0.379c0.667-0.252,1.237-0.613,1.709-1.086
			c0.472-0.472,0.834-1.037,1.087-1.697c0.252-0.658,0.378-1.403,0.378-2.233v-1.196c0-0.911-0.439-1.367-1.318-1.367h-18.091
			v22.314h20.947c0.113,0,0.252-0.008,0.415-0.024c0.163-0.016,0.31-0.064,0.439-0.146c0.13-0.081,0.244-0.22,0.342-0.415
			s0.146-0.464,0.146-0.806V33.6z"/>
		<path fill="none" stroke="#000000" stroke-width="5" d="M204.896,42.511h-6.348V7.501h6.348V42.511z"/>
		<path fill="none" stroke="#000000" stroke-width="5" d="M247.303,39.801c0,0.456-0.086,0.879-0.256,1.27
			c-0.172,0.391-0.4,0.729-0.684,1.014c-0.285,0.285-0.623,0.508-1.014,0.671s-0.807,0.244-1.246,0.244
			c-0.391,0-0.785-0.073-1.184-0.22s-0.752-0.383-1.063-0.708l-23.192-24.219v24.658h-6.348v-32.3c0-0.651,0.183-1.241,0.55-1.77
			c0.365-0.529,0.834-0.923,1.403-1.184c0.603-0.244,1.221-0.305,1.855-0.183s1.18,0.419,1.636,0.891l23.193,24.194V7.501h6.348
			V39.801z"/>
		<path fill="none" stroke="#000000" stroke-width="5" d="M289.221,39.313c0,0.456-0.08,0.879-0.244,1.27
			c-0.162,0.391-0.387,0.729-0.67,1.014c-0.285,0.285-0.623,0.508-1.014,0.671s-0.814,0.244-1.27,0.244h-22.9
			c-0.586,0-1.217-0.069-1.893-0.208c-0.676-0.138-1.342-0.354-2.002-0.646c-0.658-0.293-1.289-0.672-1.893-1.135
			c-0.602-0.465-1.135-1.025-1.598-1.686c-0.465-0.658-0.836-1.424-1.111-2.295c-0.277-0.87-0.416-1.851-0.416-2.941V16.412
			c0-0.586,0.07-1.216,0.209-1.892c0.137-0.675,0.354-1.343,0.646-2.002s0.676-1.29,1.146-1.892
			c0.473-0.602,1.039-1.135,1.697-1.599c0.66-0.464,1.42-0.834,2.283-1.111c0.861-0.276,1.838-0.415,2.93-0.415h25.805v6.348
			h-25.805c-0.83,0-1.465,0.22-1.904,0.659s-0.66,1.091-0.66,1.953V33.6c0,0.814,0.225,1.445,0.672,1.893s1.078,0.671,1.893,0.671
			h19.75v-7.959h-16.895v-6.396h20.045c0.455,0,0.879,0.086,1.27,0.256c0.391,0.172,0.729,0.403,1.014,0.696
			c0.283,0.293,0.508,0.631,0.67,1.013c0.164,0.383,0.244,0.794,0.244,1.233V39.313z"/>
		<path fill="none" stroke="#000000" stroke-width="5" d="M346.643,39.313c0,0.456-0.08,0.879-0.244,1.27
			c-0.162,0.391-0.387,0.729-0.67,1.014c-0.285,0.285-0.623,0.508-1.014,0.671s-0.814,0.244-1.27,0.244h-22.9
			c-0.586,0-1.217-0.069-1.893-0.208c-0.676-0.138-1.342-0.354-2.002-0.646c-0.658-0.293-1.289-0.672-1.893-1.135
			c-0.602-0.465-1.135-1.025-1.598-1.686c-0.465-0.658-0.836-1.424-1.111-2.295c-0.277-0.87-0.416-1.851-0.416-2.941V16.412
			c0-0.586,0.07-1.216,0.209-1.892c0.137-0.675,0.354-1.343,0.646-2.002s0.676-1.29,1.146-1.892
			c0.473-0.602,1.039-1.135,1.697-1.599c0.66-0.464,1.42-0.834,2.283-1.111c0.861-0.276,1.838-0.415,2.93-0.415h25.805v6.348
			h-25.805c-0.83,0-1.465,0.22-1.904,0.659s-0.66,1.091-0.66,1.953V33.6c0,0.814,0.225,1.445,0.672,1.893s1.078,0.671,1.893,0.671
			h19.75v-7.959H323.4v-6.396h20.045c0.455,0,0.879,0.086,1.27,0.256c0.391,0.172,0.729,0.403,1.014,0.696
			c0.283,0.293,0.508,0.631,0.67,1.013c0.164,0.383,0.244,0.794,0.244,1.233V39.313z"/>
		<path fill="none" stroke="#000000" stroke-width="5" d="M386.609,19.22c0,1.449-0.184,2.742-0.549,3.882
			c-0.367,1.14-0.852,2.145-1.453,3.016c-0.604,0.871-1.307,1.615-2.111,2.233c-0.807,0.618-1.641,1.128-2.504,1.526
			c-0.861,0.398-1.736,0.688-2.623,0.866c-0.889,0.179-1.723,0.269-2.504,0.269h-2.563v11.499h-6.396V31.012h-2.539
			c-0.781,0-1.615-0.09-2.502-0.269c-0.889-0.179-1.768-0.468-2.637-0.866c-0.871-0.398-1.705-0.908-2.504-1.526
			c-0.797-0.618-1.5-1.362-2.111-2.233c-0.609-0.871-1.098-1.88-1.465-3.028c-0.365-1.146-0.549-2.437-0.549-3.869V7.501h6.348
			V19.22c0,0.83,0.129,1.574,0.391,2.234c0.26,0.658,0.627,1.225,1.098,1.696c0.473,0.472,1.047,0.835,1.723,1.087
			c0.674,0.252,1.428,0.378,2.258,0.378h11.449c0.604-0.098,1.221-0.224,1.855-0.378s1.213-0.42,1.734-0.794
			c0.52-0.374,0.951-0.896,1.293-1.563s0.514-1.554,0.514-2.661V7.501h6.348V19.22z"/>
		<path fill="none" stroke="#000000" stroke-width="5" d="M433.068,42.511h-6.396v-20.85l-11.254,19.8
			c-0.277,0.505-0.664,0.887-1.16,1.147s-1.029,0.391-1.6,0.391c-0.553,0-1.07-0.13-1.551-0.391
			c-0.479-0.261-0.857-0.643-1.135-1.147l-11.303-19.8v20.85h-6.348v-32.3c0-0.732,0.215-1.383,0.646-1.953
			c0.432-0.569,0.996-0.952,1.697-1.147c0.342-0.081,0.684-0.11,1.025-0.085s0.672,0.098,0.988,0.22
			c0.318,0.122,0.605,0.293,0.867,0.513c0.26,0.22,0.48,0.484,0.658,0.793l14.453,25.122l14.453-25.122
			c0.375-0.618,0.891-1.058,1.551-1.318c0.658-0.26,1.346-0.301,2.063-0.122c0.684,0.195,1.246,0.578,1.686,1.147
			c0.439,0.57,0.658,1.221,0.658,1.953V42.511z"/>
	</g>
	<g>
		<path d="M48.743,42.511h-22.9c-0.586,0-1.217-0.069-1.892-0.208c-0.676-0.138-1.344-0.354-2.002-0.646
			c-0.66-0.293-1.291-0.672-1.893-1.135c-0.603-0.465-1.135-1.025-1.6-1.686c-0.463-0.658-0.834-1.424-1.11-2.295
			c-0.277-0.87-0.415-1.851-0.415-2.941V16.412c0-0.586,0.069-1.216,0.208-1.892c0.138-0.675,0.354-1.343,0.647-2.002
			s0.675-1.29,1.147-1.892c0.472-0.602,1.037-1.135,1.697-1.599c0.658-0.464,1.42-0.834,2.282-1.111
			c0.862-0.276,1.839-0.415,2.93-0.415h22.9v6.348h-22.9c-0.83,0-1.465,0.22-1.904,0.659s-0.659,1.091-0.659,1.953V33.6
			c0,0.814,0.224,1.445,0.672,1.893c0.447,0.447,1.078,0.671,1.892,0.671h22.9V42.511z"/>
		<path d="M89.734,19.269c0,1.449-0.18,2.742-0.537,3.882c-0.358,1.14-0.842,2.145-1.453,3.016
			c-0.609,0.871-1.314,1.615-2.111,2.233c-0.798,0.618-1.632,1.128-2.502,1.526c-0.871,0.398-1.75,0.688-2.637,0.866
			c-0.888,0.179-1.722,0.269-2.503,0.269l13.257,11.45h-9.814l-13.232-11.45h-4.565v-6.348h14.355
			c0.798-0.065,1.526-0.231,2.185-0.501c0.66-0.268,1.229-0.63,1.709-1.086c0.48-0.455,0.851-1.005,1.111-1.648
			c0.26-0.643,0.391-1.379,0.391-2.209v-4.004c0-0.358-0.045-0.63-0.135-0.818c-0.09-0.187-0.203-0.325-0.342-0.415
			c-0.139-0.089-0.285-0.142-0.439-0.159c-0.154-0.016-0.297-0.024-0.427-0.024H61.097v28.662h-6.348V10.699
			c0-0.439,0.081-0.854,0.244-1.245s0.386-0.732,0.671-1.025s0.623-0.521,1.014-0.684c0.391-0.163,0.813-0.244,1.27-0.244h24.097
			c1.416,0,2.612,0.256,3.589,0.769s1.77,1.156,2.381,1.929c0.609,0.773,1.049,1.607,1.318,2.502
			c0.268,0.896,0.402,1.733,0.402,2.515V19.269z"/>
		<path d="M102.503,42.511h-6.348V7.501h6.348V42.511z"/>
		<path d="M150.672,42.511h-6.396v-20.85l-11.255,19.8c-0.276,0.505-0.663,0.887-1.159,1.147c-0.497,0.261-1.03,0.391-1.6,0.391
			c-0.554,0-1.07-0.13-1.551-0.391s-0.858-0.643-1.135-1.147l-11.304-19.8v20.85h-6.348v-32.3c0-0.732,0.216-1.383,0.647-1.953
			c0.431-0.569,0.996-0.952,1.696-1.147c0.342-0.081,0.684-0.11,1.025-0.085s0.671,0.098,0.989,0.22
			c0.316,0.122,0.605,0.293,0.866,0.513s0.479,0.484,0.659,0.793l14.453,25.122l14.453-25.122c0.374-0.618,0.891-1.058,1.551-1.318
			c0.658-0.26,1.346-0.301,2.063-0.122c0.684,0.195,1.245,0.578,1.685,1.147c0.439,0.57,0.659,1.221,0.659,1.953V42.511z"/>
		<path d="M192.981,34.82c0,0.781-0.134,1.619-0.403,2.515c-0.268,0.896-0.707,1.726-1.318,2.49
			c-0.609,0.765-1.403,1.403-2.38,1.917c-0.977,0.512-2.173,0.769-3.589,0.769h-24.097c-0.456,0-0.879-0.081-1.27-0.244
			s-0.729-0.386-1.013-0.671c-0.285-0.285-0.51-0.623-0.672-1.014c-0.163-0.391-0.244-0.813-0.244-1.27V10.699
			c0-0.439,0.081-0.854,0.244-1.245c0.162-0.391,0.387-0.732,0.672-1.025c0.284-0.293,0.622-0.521,1.013-0.684
			c0.391-0.163,0.813-0.244,1.27-0.244h21.24c0.781,0,1.619,0.139,2.515,0.415c0.895,0.277,1.729,0.72,2.502,1.331
			s1.416,1.404,1.93,2.38c0.512,0.977,0.769,2.173,0.769,3.589v1.196c0,1.123-0.188,2.331-0.562,3.626
			c-0.375,1.293-0.977,2.519-1.807,3.674c0.716,0.439,1.387,0.969,2.014,1.587c0.627,0.619,1.176,1.335,1.648,2.148
			c0.472,0.814,0.846,1.733,1.123,2.759c0.276,1.025,0.415,2.157,0.415,3.394V34.82z M186.634,33.6c0-0.83-0.13-1.574-0.391-2.234
			c-0.261-0.658-0.627-1.225-1.099-1.696c-0.473-0.472-1.042-0.834-1.709-1.087c-0.668-0.252-1.416-0.378-2.246-0.378h-14.307
			v-6.396h11.45c0.83,0,1.579-0.126,2.246-0.379c0.667-0.252,1.237-0.613,1.709-1.086c0.472-0.472,0.834-1.037,1.087-1.697
			c0.252-0.658,0.378-1.403,0.378-2.233v-1.196c0-0.911-0.439-1.367-1.318-1.367h-18.091v22.314h20.947
			c0.113,0,0.252-0.008,0.415-0.024c0.163-0.016,0.31-0.064,0.439-0.146c0.13-0.081,0.244-0.22,0.342-0.415s0.146-0.464,0.146-0.806
			V33.6z"/>
		<path d="M204.896,42.511h-6.348V7.501h6.348V42.511z"/>
		<path d="M247.303,39.801c0,0.456-0.086,0.879-0.256,1.27c-0.172,0.391-0.4,0.729-0.684,1.014
			c-0.285,0.285-0.623,0.508-1.014,0.671s-0.807,0.244-1.246,0.244c-0.391,0-0.785-0.073-1.184-0.22s-0.752-0.383-1.063-0.708
			l-23.192-24.219v24.658h-6.348v-32.3c0-0.651,0.183-1.241,0.55-1.77c0.365-0.529,0.834-0.923,1.403-1.184
			c0.603-0.244,1.221-0.305,1.855-0.183s1.18,0.419,1.636,0.891l23.193,24.194V7.501h6.348V39.801z"/>
		<path d="M289.221,39.313c0,0.456-0.08,0.879-0.244,1.27c-0.162,0.391-0.387,0.729-0.67,1.014
			c-0.285,0.285-0.623,0.508-1.014,0.671s-0.814,0.244-1.27,0.244h-22.9c-0.586,0-1.217-0.069-1.893-0.208
			c-0.676-0.138-1.342-0.354-2.002-0.646c-0.658-0.293-1.289-0.672-1.893-1.135c-0.602-0.465-1.135-1.025-1.598-1.686
			c-0.465-0.658-0.836-1.424-1.111-2.295c-0.277-0.87-0.416-1.851-0.416-2.941V16.412c0-0.586,0.07-1.216,0.209-1.892
			c0.137-0.675,0.354-1.343,0.646-2.002s0.676-1.29,1.146-1.892c0.473-0.602,1.039-1.135,1.697-1.599
			c0.66-0.464,1.42-0.834,2.283-1.111c0.861-0.276,1.838-0.415,2.93-0.415h25.805v6.348h-25.805c-0.83,0-1.465,0.22-1.904,0.659
			s-0.66,1.091-0.66,1.953V33.6c0,0.814,0.225,1.445,0.672,1.893s1.078,0.671,1.893,0.671h19.75v-7.959h-16.895v-6.396h20.045
			c0.455,0,0.879,0.086,1.27,0.256c0.391,0.172,0.729,0.403,1.014,0.696c0.283,0.293,0.508,0.631,0.67,1.013
			c0.164,0.383,0.244,0.794,0.244,1.233V39.313z"/>
		<path d="M346.643,39.313c0,0.456-0.08,0.879-0.244,1.27c-0.162,0.391-0.387,0.729-0.67,1.014
			c-0.285,0.285-0.623,0.508-1.014,0.671s-0.814,0.244-1.27,0.244h-22.9c-0.586,0-1.217-0.069-1.893-0.208
			c-0.676-0.138-1.342-0.354-2.002-0.646c-0.658-0.293-1.289-0.672-1.893-1.135c-0.602-0.465-1.135-1.025-1.598-1.686
			c-0.465-0.658-0.836-1.424-1.111-2.295c-0.277-0.87-0.416-1.851-0.416-2.941V16.412c0-0.586,0.07-1.216,0.209-1.892
			c0.137-0.675,0.354-1.343,0.646-2.002s0.676-1.29,1.146-1.892c0.473-0.602,1.039-1.135,1.697-1.599
			c0.66-0.464,1.42-0.834,2.283-1.111c0.861-0.276,1.838-0.415,2.93-0.415h25.805v6.348h-25.805c-0.83,0-1.465,0.22-1.904,0.659
			s-0.66,1.091-0.66,1.953V33.6c0,0.814,0.225,1.445,0.672,1.893s1.078,0.671,1.893,0.671h19.75v-7.959H323.4v-6.396h20.045
			c0.455,0,0.879,0.086,1.27,0.256c0.391,0.172,0.729,0.403,1.014,0.696c0.283,0.293,0.508,0.631,0.67,1.013
			c0.164,0.383,0.244,0.794,0.244,1.233V39.313z"/>
		<path d="M386.609,19.22c0,1.449-0.184,2.742-0.549,3.882c-0.367,1.14-0.852,2.145-1.453,3.016
			c-0.604,0.871-1.307,1.615-2.111,2.233c-0.807,0.618-1.641,1.128-2.504,1.526c-0.861,0.398-1.736,0.688-2.623,0.866
			c-0.889,0.179-1.723,0.269-2.504,0.269h-2.563v11.499h-6.396V31.012h-2.539c-0.781,0-1.615-0.09-2.502-0.269
			c-0.889-0.179-1.768-0.468-2.637-0.866c-0.871-0.398-1.705-0.908-2.504-1.526c-0.797-0.618-1.5-1.362-2.111-2.233
			c-0.609-0.871-1.098-1.88-1.465-3.028c-0.365-1.146-0.549-2.437-0.549-3.869V7.501h6.348V19.22c0,0.83,0.129,1.574,0.391,2.234
			c0.26,0.658,0.627,1.225,1.098,1.696c0.473,0.472,1.047,0.835,1.723,1.087c0.674,0.252,1.428,0.378,2.258,0.378h11.449
			c0.604-0.098,1.221-0.224,1.855-0.378s1.213-0.42,1.734-0.794c0.52-0.374,0.951-0.896,1.293-1.563s0.514-1.554,0.514-2.661V7.501
			h6.348V19.22z"/>
		<path d="M433.068,42.511h-6.396v-20.85l-11.254,19.8c-0.277,0.505-0.664,0.887-1.16,1.147s-1.029,0.391-1.6,0.391
			c-0.553,0-1.07-0.13-1.551-0.391c-0.479-0.261-0.857-0.643-1.135-1.147l-11.303-19.8v20.85h-6.348v-32.3
			c0-0.732,0.215-1.383,0.646-1.953c0.432-0.569,0.996-0.952,1.697-1.147c0.342-0.081,0.684-0.11,1.025-0.085
			s0.672,0.098,0.988,0.22c0.318,0.122,0.605,0.293,0.867,0.513c0.26,0.22,0.48,0.484,0.658,0.793l14.453,25.122l14.453-25.122
			c0.375-0.618,0.891-1.058,1.551-1.318c0.658-0.26,1.346-0.301,2.063-0.122c0.684,0.195,1.246,0.578,1.686,1.147
			c0.439,0.57,0.658,1.221,0.658,1.953V42.511z"/>
	</g>
	<g>
		<path fill="#FFFFFF" d="M48.743,42.511h-22.9c-0.586,0-1.217-0.069-1.892-0.208c-0.676-0.138-1.344-0.354-2.002-0.646
			c-0.66-0.293-1.291-0.672-1.893-1.135c-0.603-0.465-1.135-1.025-1.6-1.686c-0.463-0.658-0.834-1.424-1.11-2.295
			c-0.277-0.87-0.415-1.851-0.415-2.941V16.412c0-0.586,0.069-1.216,0.208-1.892c0.138-0.675,0.354-1.343,0.647-2.002
			s0.675-1.29,1.147-1.892c0.472-0.602,1.037-1.135,1.697-1.599c0.658-0.464,1.42-0.834,2.282-1.111
			c0.862-0.276,1.839-0.415,2.93-0.415h22.9v6.348h-22.9c-0.83,0-1.465,0.22-1.904,0.659s-0.659,1.091-0.659,1.953V33.6
			c0,0.814,0.224,1.445,0.672,1.893c0.447,0.447,1.078,0.671,1.892,0.671h22.9V42.511z"/>
		<path fill="#FFFFFF" d="M89.734,19.269c0,1.449-0.18,2.742-0.537,3.882c-0.358,1.14-0.842,2.145-1.453,3.016
			c-0.609,0.871-1.314,1.615-2.111,2.233c-0.798,0.618-1.632,1.128-2.502,1.526c-0.871,0.398-1.75,0.688-2.637,0.866
			c-0.888,0.179-1.722,0.269-2.503,0.269l13.257,11.45h-9.814l-13.232-11.45h-4.565v-6.348h14.355
			c0.798-0.065,1.526-0.231,2.185-0.501c0.66-0.268,1.229-0.63,1.709-1.086c0.48-0.455,0.851-1.005,1.111-1.648
			c0.26-0.643,0.391-1.379,0.391-2.209v-4.004c0-0.358-0.045-0.63-0.135-0.818c-0.09-0.187-0.203-0.325-0.342-0.415
			c-0.139-0.089-0.285-0.142-0.439-0.159c-0.154-0.016-0.297-0.024-0.427-0.024H61.097v28.662h-6.348V10.699
			c0-0.439,0.081-0.854,0.244-1.245s0.386-0.732,0.671-1.025s0.623-0.521,1.014-0.684c0.391-0.163,0.813-0.244,1.27-0.244h24.097
			c1.416,0,2.612,0.256,3.589,0.769s1.77,1.156,2.381,1.929c0.609,0.773,1.049,1.607,1.318,2.502
			c0.268,0.896,0.402,1.733,0.402,2.515V19.269z"/>
		<path fill="#FFFFFF" d="M102.503,42.511h-6.348V7.501h6.348V42.511z"/>
		<path fill="#FFFFFF" d="M150.672,42.511h-6.396v-20.85l-11.255,19.8c-0.276,0.505-0.663,0.887-1.159,1.147
			c-0.497,0.261-1.03,0.391-1.6,0.391c-0.554,0-1.07-0.13-1.551-0.391s-0.858-0.643-1.135-1.147l-11.304-19.8v20.85h-6.348v-32.3
			c0-0.732,0.216-1.383,0.647-1.953c0.431-0.569,0.996-0.952,1.696-1.147c0.342-0.081,0.684-0.11,1.025-0.085
			s0.671,0.098,0.989,0.22c0.316,0.122,0.605,0.293,0.866,0.513s0.479,0.484,0.659,0.793l14.453,25.122l14.453-25.122
			c0.374-0.618,0.891-1.058,1.551-1.318c0.658-0.26,1.346-0.301,2.063-0.122c0.684,0.195,1.245,0.578,1.685,1.147
			c0.439,0.57,0.659,1.221,0.659,1.953V42.511z"/>
		<path fill="#FFFFFF" d="M192.981,34.82c0,0.781-0.134,1.619-0.403,2.515c-0.268,0.896-0.707,1.726-1.318,2.49
			c-0.609,0.765-1.403,1.403-2.38,1.917c-0.977,0.512-2.173,0.769-3.589,0.769h-24.097c-0.456,0-0.879-0.081-1.27-0.244
			s-0.729-0.386-1.013-0.671c-0.285-0.285-0.51-0.623-0.672-1.014c-0.163-0.391-0.244-0.813-0.244-1.27V10.699
			c0-0.439,0.081-0.854,0.244-1.245c0.162-0.391,0.387-0.732,0.672-1.025c0.284-0.293,0.622-0.521,1.013-0.684
			c0.391-0.163,0.813-0.244,1.27-0.244h21.24c0.781,0,1.619,0.139,2.515,0.415c0.895,0.277,1.729,0.72,2.502,1.331
			s1.416,1.404,1.93,2.38c0.512,0.977,0.769,2.173,0.769,3.589v1.196c0,1.123-0.188,2.331-0.562,3.626
			c-0.375,1.293-0.977,2.519-1.807,3.674c0.716,0.439,1.387,0.969,2.014,1.587c0.627,0.619,1.176,1.335,1.648,2.148
			c0.472,0.814,0.846,1.733,1.123,2.759c0.276,1.025,0.415,2.157,0.415,3.394V34.82z M186.634,33.6c0-0.83-0.13-1.574-0.391-2.234
			c-0.261-0.658-0.627-1.225-1.099-1.696c-0.473-0.472-1.042-0.834-1.709-1.087c-0.668-0.252-1.416-0.378-2.246-0.378h-14.307
			v-6.396h11.45c0.83,0,1.579-0.126,2.246-0.379c0.667-0.252,1.237-0.613,1.709-1.086c0.472-0.472,0.834-1.037,1.087-1.697
			c0.252-0.658,0.378-1.403,0.378-2.233v-1.196c0-0.911-0.439-1.367-1.318-1.367h-18.091v22.314h20.947
			c0.113,0,0.252-0.008,0.415-0.024c0.163-0.016,0.31-0.064,0.439-0.146c0.13-0.081,0.244-0.22,0.342-0.415s0.146-0.464,0.146-0.806
			V33.6z"/>
		<path fill="#FFFFFF" d="M204.896,42.511h-6.348V7.501h6.348V42.511z"/>
		<path fill="#FFFFFF" d="M247.303,39.801c0,0.456-0.086,0.879-0.256,1.27c-0.172,0.391-0.4,0.729-0.684,1.014
			c-0.285,0.285-0.623,0.508-1.014,0.671s-0.807,0.244-1.246,0.244c-0.391,0-0.785-0.073-1.184-0.22s-0.752-0.383-1.063-0.708
			l-23.192-24.219v24.658h-6.348v-32.3c0-0.651,0.183-1.241,0.55-1.77c0.365-0.529,0.834-0.923,1.403-1.184
			c0.603-0.244,1.221-0.305,1.855-0.183s1.18,0.419,1.636,0.891l23.193,24.194V7.501h6.348V39.801z"/>
		<path fill="#FFFFFF" d="M289.221,39.313c0,0.456-0.08,0.879-0.244,1.27c-0.162,0.391-0.387,0.729-0.67,1.014
			c-0.285,0.285-0.623,0.508-1.014,0.671s-0.814,0.244-1.27,0.244h-22.9c-0.586,0-1.217-0.069-1.893-0.208
			c-0.676-0.138-1.342-0.354-2.002-0.646c-0.658-0.293-1.289-0.672-1.893-1.135c-0.602-0.465-1.135-1.025-1.598-1.686
			c-0.465-0.658-0.836-1.424-1.111-2.295c-0.277-0.87-0.416-1.851-0.416-2.941V16.412c0-0.586,0.07-1.216,0.209-1.892
			c0.137-0.675,0.354-1.343,0.646-2.002s0.676-1.29,1.146-1.892c0.473-0.602,1.039-1.135,1.697-1.599
			c0.66-0.464,1.42-0.834,2.283-1.111c0.861-0.276,1.838-0.415,2.93-0.415h25.805v6.348h-25.805c-0.83,0-1.465,0.22-1.904,0.659
			s-0.66,1.091-0.66,1.953V33.6c0,0.814,0.225,1.445,0.672,1.893s1.078,0.671,1.893,0.671h19.75v-7.959h-16.895v-6.396h20.045
			c0.455,0,0.879,0.086,1.27,0.256c0.391,0.172,0.729,0.403,1.014,0.696c0.283,0.293,0.508,0.631,0.67,1.013
			c0.164,0.383,0.244,0.794,0.244,1.233V39.313z"/>
		<path fill="#FFFFFF" d="M346.643,39.313c0,0.456-0.08,0.879-0.244,1.27c-0.162,0.391-0.387,0.729-0.67,1.014
			c-0.285,0.285-0.623,0.508-1.014,0.671s-0.814,0.244-1.27,0.244h-22.9c-0.586,0-1.217-0.069-1.893-0.208
			c-0.676-0.138-1.342-0.354-2.002-0.646c-0.658-0.293-1.289-0.672-1.893-1.135c-0.602-0.465-1.135-1.025-1.598-1.686
			c-0.465-0.658-0.836-1.424-1.111-2.295c-0.277-0.87-0.416-1.851-0.416-2.941V16.412c0-0.586,0.07-1.216,0.209-1.892
			c0.137-0.675,0.354-1.343,0.646-2.002s0.676-1.29,1.146-1.892c0.473-0.602,1.039-1.135,1.697-1.599
			c0.66-0.464,1.42-0.834,2.283-1.111c0.861-0.276,1.838-0.415,2.93-0.415h25.805v6.348h-25.805c-0.83,0-1.465,0.22-1.904,0.659
			s-0.66,1.091-0.66,1.953V33.6c0,0.814,0.225,1.445,0.672,1.893s1.078,0.671,1.893,0.671h19.75v-7.959H323.4v-6.396h20.045
			c0.455,0,0.879,0.086,1.27,0.256c0.391,0.172,0.729,0.403,1.014,0.696c0.283,0.293,0.508,0.631,0.67,1.013
			c0.164,0.383,0.244,0.794,0.244,1.233V39.313z"/>
		<path fill="#FFFFFF" d="M386.609,19.22c0,1.449-0.184,2.742-0.549,3.882c-0.367,1.14-0.852,2.145-1.453,3.016
			c-0.604,0.871-1.307,1.615-2.111,2.233c-0.807,0.618-1.641,1.128-2.504,1.526c-0.861,0.398-1.736,0.688-2.623,0.866
			c-0.889,0.179-1.723,0.269-2.504,0.269h-2.563v11.499h-6.396V31.012h-2.539c-0.781,0-1.615-0.09-2.502-0.269
			c-0.889-0.179-1.768-0.468-2.637-0.866c-0.871-0.398-1.705-0.908-2.504-1.526c-0.797-0.618-1.5-1.362-2.111-2.233
			c-0.609-0.871-1.098-1.88-1.465-3.028c-0.365-1.146-0.549-2.437-0.549-3.869V7.501h6.348V19.22c0,0.83,0.129,1.574,0.391,2.234
			c0.26,0.658,0.627,1.225,1.098,1.696c0.473,0.472,1.047,0.835,1.723,1.087c0.674,0.252,1.428,0.378,2.258,0.378h11.449
			c0.604-0.098,1.221-0.224,1.855-0.378s1.213-0.42,1.734-0.794c0.52-0.374,0.951-0.896,1.293-1.563s0.514-1.554,0.514-2.661V7.501
			h6.348V19.22z"/>
		<path fill="#FFFFFF" d="M433.068,42.511h-6.396v-20.85l-11.254,19.8c-0.277,0.505-0.664,0.887-1.16,1.147s-1.029,0.391-1.6,0.391
			c-0.553,0-1.07-0.13-1.551-0.391c-0.479-0.261-0.857-0.643-1.135-1.147l-11.303-19.8v20.85h-6.348v-32.3
			c0-0.732,0.215-1.383,0.646-1.953c0.432-0.569,0.996-0.952,1.697-1.147c0.342-0.081,0.684-0.11,1.025-0.085
			s0.672,0.098,0.988,0.22c0.318,0.122,0.605,0.293,0.867,0.513c0.26,0.22,0.48,0.484,0.658,0.793l14.453,25.122l14.453-25.122
			c0.375-0.618,0.891-1.058,1.551-1.318c0.658-0.26,1.346-0.301,2.063-0.122c0.684,0.195,1.246,0.578,1.686,1.147
			c0.439,0.57,0.658,1.221,0.658,1.953V42.511z"/>
	</g>
</g>
</svg>
