<?xml version="1.0" encoding="utf-8"?>
<!-- Generator: Adobe Illustrator 16.0.3, SVG Export Plug-In . SVG Version: 6.00 Build 0)  -->
<!DOCTYPE svg PUBLIC "-//W3C//DTD SVG 1.1//EN" "http://www.w3.org/Graphics/SVG/1.1/DTD/svg11.dtd">
<svg version="1.1" id="レイヤー_1" xmlns="http://www.w3.org/2000/svg" xmlns:xlink="http://www.w3.org/1999/xlink" x="0px"
	 y="0px" width="1919.998px" height="1271.24px" viewBox="0 0 1919.998 1271.24" enable-background="new 0 0 1919.998 1271.24"
	 xml:space="preserve">
<g>
	<g>
		<path fill="none" stroke="#231815" stroke-width="60.857" d="M619.536,251.329c0,21.102-2.612,39.947-7.823,56.537
			c-5.216,16.595-12.268,31.235-21.157,43.913c-8.89,12.685-19.145,23.53-30.757,32.536c-11.617,9.012-23.769,16.417-36.446,22.223
			c-12.685,5.811-25.484,10.017-38.402,12.624c-12.924,2.61-25.068,3.91-36.446,3.91l193.076,166.763h-142.94L305.919,423.071
			h-66.492v-92.449h209.078c11.611-0.944,22.223-3.377,31.823-7.289c9.6-3.91,17.896-9.184,24.891-15.823
			c6.989-6.634,12.384-14.635,16.177-24.002c3.791-9.361,5.69-20.089,5.69-32.179v-58.313c0-5.212-0.655-9.184-1.956-11.913
			c-1.306-2.722-2.968-4.737-4.978-6.044c-2.017-1.3-4.15-2.072-6.401-2.311c-2.254-0.234-4.327-0.356-6.221-0.356H202.448v417.442
			h-92.449V126.523c0-6.401,1.183-12.447,3.556-18.135c2.366-5.689,5.628-10.668,9.777-14.934c4.146-4.267,9.067-7.584,14.756-9.956
			c5.69-2.366,11.851-3.556,18.49-3.556h350.952c20.623,0,38.046,3.734,52.269,11.2c14.223,7.468,25.779,16.834,34.669,28.091
			c8.889,11.26,15.29,23.412,19.201,36.445c3.911,13.041,5.866,25.246,5.866,36.624V251.329z"/>
		<path fill="none" stroke="#231815" stroke-width="60.857" d="M1247.481,383.604c0,31.056-5.332,59.619-16.005,85.693
			c-10.662,26.079-25.479,48.597-44.445,67.557c-18.967,18.972-41.424,33.723-67.381,44.27
			c-25.958,10.547-54.224,15.823-84.804,15.823H909.685c-30.578,0-58.907-5.276-84.981-15.823
			c-26.078-10.546-48.598-25.298-67.559-44.27c-18.968-18.96-33.84-41.478-44.625-67.557c-10.79-26.074-16.179-54.637-16.179-85.693
			v-97.427c0-30.813,5.389-59.321,16.179-85.516c10.784-26.191,25.656-48.714,44.625-67.559
			c18.961-18.846,41.481-33.603,67.559-44.269c26.074-10.668,54.403-16.001,84.981-16.001h125.162
			c30.58,0,58.846,5.333,84.804,16.001c25.957,10.666,48.414,25.423,67.381,44.269c18.966,18.845,33.783,41.368,44.445,67.559
			c10.673,26.195,16.005,54.703,16.005,85.516V383.604z M1155.033,286.176c0-18.252-2.907-34.787-8.717-49.603
			c-5.809-14.813-13.987-27.496-24.528-38.047c-10.552-10.545-23.236-18.722-38.049-24.534c-14.816-5.807-31.112-8.711-48.893-8.711
			H909.685c-18.017,0-34.434,2.904-49.248,8.711c-14.815,5.812-27.556,13.988-38.222,24.534
			c-10.667,10.551-18.906,23.234-24.712,38.047c-5.811,14.816-8.711,31.351-8.711,49.603v97.427c0,18.255,2.901,34.791,8.711,49.602
			c5.806,14.817,14.045,27.502,24.712,38.046c10.666,10.551,23.406,18.729,38.222,24.536c14.814,5.811,31.231,8.709,49.248,8.709
			h124.453c18.011,0,34.427-2.899,49.244-8.709c14.812-5.807,27.557-13.984,38.225-24.536c10.668-10.544,18.901-23.229,24.71-38.046
			c5.81-14.812,8.717-31.347,8.717-49.602V286.176z"/>
		<path fill="none" stroke="#231815" stroke-width="60.857" d="M1795.418,589.834H1461.89c-8.529,0-17.72-1.006-27.557-3.022
			c-9.837-2.012-19.555-5.156-29.155-9.42c-9.603-4.265-18.791-9.777-27.558-16.532c-8.771-6.76-16.537-14.938-23.292-24.534
			c-6.755-9.604-12.146-20.745-16.175-33.426c-4.034-12.678-6.045-26.963-6.045-42.848V209.728c0-8.534,1.005-17.718,3.022-27.557
			c2.011-9.834,5.155-19.558,9.42-29.157c4.271-9.601,9.833-18.786,16.714-27.557c6.875-8.766,15.108-16.535,24.715-23.289
			c9.596-6.757,20.676-12.146,33.245-16.18c12.559-4.027,26.782-6.044,42.665-6.044h333.528v92.449H1461.89
			c-12.085,0-21.336,3.2-27.732,9.602c-6.403,6.398-9.602,15.883-9.602,28.446v249.612c0,11.857,3.259,21.041,9.777,27.558
			c6.519,6.522,15.701,9.778,27.557,9.778h333.528V589.834z"/>
		<path fill="none" stroke="#231815" stroke-width="60.857" d="M203.16,896.877h324.639V688.515h92.449v509.894h-92.449V990.04
			H203.16v208.369h-92.451V688.515h92.451V896.877z"/>
		<path fill="none" stroke="#231815" stroke-width="60.857" d="M1189.168,1198.409H855.639c-12.801,0-26.791-2.253-41.958-6.761
			c-15.176-4.495-29.221-11.909-42.136-22.22c-12.924-10.315-23.707-23.704-32.358-40.182c-8.656-16.471-12.979-36.68-12.979-60.626
			V735.092c0-6.396,1.184-12.442,3.556-18.136c2.366-5.689,5.627-10.663,9.778-14.934c4.145-4.264,9.067-7.578,14.757-9.953
			c5.688-2.369,11.851-3.555,18.49-3.555h416.378v92.447H818.656v287.658c0,12.092,3.201,21.336,9.602,27.733
			c6.401,6.403,15.762,9.602,28.09,9.602h332.82V1198.409z M1147.564,990.04H855.639v-93.162h291.926V990.04z"/>
		<path fill="none" stroke="#231815" stroke-width="60.857" d="M1787.954,859.901c0,21.099-2.615,39.944-7.819,56.537
			c-5.222,16.592-12.269,31.233-21.16,43.913c-8.888,12.685-19.143,23.527-30.756,32.535c-11.618,9.009-23.771,16.417-36.449,22.221
			c-12.685,5.81-25.485,10.019-38.4,12.624c-12.927,2.611-25.066,3.913-36.449,3.913l193.079,166.765h-142.938l-192.722-166.765
			h-66.491v-92.453h209.072c11.613-0.94,22.226-3.374,31.827-7.287c9.596-3.914,17.895-9.184,24.892-15.823
			c6.984-6.634,12.382-14.636,16.18-24.001c3.787-9.359,5.688-20.088,5.688-32.179v-58.318c0-5.209-0.66-9.184-1.957-11.91
			c-1.307-2.72-2.967-4.737-4.979-6.045c-2.018-1.297-4.149-2.072-6.403-2.309c-2.254-0.235-4.325-0.356-6.221-0.356h-305.082
			v417.446h-92.448V735.092c0-6.396,1.183-12.442,3.557-18.136c2.363-5.689,5.628-10.663,9.777-14.934
			c4.144-4.264,9.068-7.578,14.757-9.953c5.688-2.369,11.85-3.555,18.488-3.555h350.951c20.626,0,38.048,3.73,52.271,11.199
			c14.224,7.464,25.776,16.835,34.669,28.091c8.887,11.262,15.29,23.412,19.202,36.443c3.909,13.042,5.864,25.249,5.864,36.625
			V859.901z"/>
	</g>
	<g>
		<path d="M619.536,251.329c0,21.102-2.612,39.947-7.823,56.537c-5.216,16.595-12.268,31.235-21.157,43.913
			c-8.89,12.685-19.145,23.53-30.757,32.536c-11.617,9.012-23.769,16.417-36.446,22.223c-12.685,5.811-25.484,10.017-38.402,12.624
			c-12.924,2.61-25.068,3.91-36.446,3.91l193.076,166.763h-142.94L305.919,423.071h-66.492v-92.449h209.078
			c11.611-0.944,22.223-3.377,31.823-7.289c9.6-3.91,17.896-9.184,24.891-15.823c6.989-6.634,12.384-14.635,16.177-24.002
			c3.791-9.361,5.69-20.089,5.69-32.179v-58.313c0-5.212-0.655-9.184-1.956-11.913c-1.306-2.722-2.968-4.737-4.978-6.044
			c-2.017-1.3-4.15-2.072-6.401-2.311c-2.254-0.234-4.327-0.356-6.221-0.356H202.448v417.442h-92.449V126.523
			c0-6.401,1.183-12.447,3.556-18.135c2.366-5.689,5.628-10.668,9.777-14.934c4.146-4.267,9.067-7.584,14.756-9.956
			c5.69-2.366,11.851-3.556,18.49-3.556h350.952c20.623,0,38.046,3.734,52.269,11.2c14.223,7.468,25.779,16.834,34.669,28.091
			c8.889,11.26,15.29,23.412,19.201,36.445c3.911,13.041,5.866,25.246,5.866,36.624V251.329z"/>
		<path d="M1247.481,383.604c0,31.056-5.332,59.619-16.005,85.693c-10.662,26.079-25.479,48.597-44.445,67.557
			c-18.967,18.972-41.424,33.723-67.381,44.27c-25.958,10.547-54.224,15.823-84.804,15.823H909.685
			c-30.578,0-58.907-5.276-84.981-15.823c-26.078-10.546-48.598-25.298-67.559-44.27c-18.968-18.96-33.84-41.478-44.625-67.557
			c-10.79-26.074-16.179-54.637-16.179-85.693v-97.427c0-30.813,5.389-59.321,16.179-85.516
			c10.784-26.191,25.656-48.714,44.625-67.559c18.961-18.846,41.481-33.603,67.559-44.269
			c26.074-10.668,54.403-16.001,84.981-16.001h125.162c30.58,0,58.846,5.333,84.804,16.001
			c25.957,10.666,48.414,25.423,67.381,44.269c18.966,18.845,33.783,41.368,44.445,67.559
			c10.673,26.195,16.005,54.703,16.005,85.516V383.604z M1155.033,286.176c0-18.252-2.907-34.787-8.717-49.603
			c-5.809-14.813-13.987-27.496-24.528-38.047c-10.552-10.545-23.236-18.722-38.049-24.534c-14.816-5.807-31.112-8.711-48.893-8.711
			H909.685c-18.017,0-34.434,2.904-49.248,8.711c-14.815,5.812-27.556,13.988-38.222,24.534
			c-10.667,10.551-18.906,23.234-24.712,38.047c-5.811,14.816-8.711,31.351-8.711,49.603v97.427c0,18.255,2.901,34.791,8.711,49.602
			c5.806,14.817,14.045,27.502,24.712,38.046c10.666,10.551,23.406,18.729,38.222,24.536c14.814,5.811,31.231,8.709,49.248,8.709
			h124.453c18.011,0,34.427-2.899,49.244-8.709c14.812-5.807,27.557-13.984,38.225-24.536c10.668-10.544,18.901-23.229,24.71-38.046
			c5.81-14.812,8.717-31.347,8.717-49.602V286.176z"/>
		<path d="M1795.418,589.834H1461.89c-8.529,0-17.72-1.006-27.557-3.022c-9.837-2.012-19.555-5.156-29.155-9.42
			c-9.603-4.265-18.791-9.777-27.558-16.532c-8.771-6.76-16.537-14.938-23.292-24.534c-6.755-9.604-12.146-20.745-16.175-33.426
			c-4.034-12.678-6.045-26.963-6.045-42.848V209.728c0-8.534,1.005-17.718,3.022-27.557c2.011-9.834,5.155-19.558,9.42-29.157
			c4.271-9.601,9.833-18.786,16.714-27.557c6.875-8.766,15.108-16.535,24.715-23.289c9.596-6.757,20.676-12.146,33.245-16.18
			c12.559-4.027,26.782-6.044,42.665-6.044h333.528v92.449H1461.89c-12.085,0-21.336,3.2-27.732,9.602
			c-6.403,6.398-9.602,15.883-9.602,28.446v249.612c0,11.857,3.259,21.041,9.777,27.558c6.519,6.522,15.701,9.778,27.557,9.778
			h333.528V589.834z"/>
		<path d="M203.16,896.877h324.639V688.515h92.449v509.894h-92.449V990.04H203.16v208.369h-92.451V688.515h92.451V896.877z"/>
		<path d="M1189.168,1198.409H855.639c-12.801,0-26.791-2.253-41.958-6.761c-15.176-4.495-29.221-11.909-42.136-22.22
			c-12.924-10.315-23.707-23.704-32.358-40.182c-8.656-16.471-12.979-36.68-12.979-60.626V735.092
			c0-6.396,1.184-12.442,3.556-18.136c2.366-5.689,5.627-10.663,9.778-14.934c4.145-4.264,9.067-7.578,14.757-9.953
			c5.688-2.369,11.851-3.555,18.49-3.555h416.378v92.447H818.656v287.658c0,12.092,3.201,21.336,9.602,27.733
			c6.401,6.403,15.762,9.602,28.09,9.602h332.82V1198.409z M1147.564,990.04H855.639v-93.162h291.926V990.04z"/>
		<path d="M1787.954,859.901c0,21.099-2.615,39.944-7.819,56.537c-5.222,16.592-12.269,31.233-21.16,43.913
			c-8.888,12.685-19.143,23.527-30.756,32.535c-11.618,9.009-23.771,16.417-36.449,22.221c-12.685,5.81-25.485,10.019-38.4,12.624
			c-12.927,2.611-25.066,3.913-36.449,3.913l193.079,166.765h-142.938l-192.722-166.765h-66.491v-92.453h209.072
			c11.613-0.94,22.226-3.374,31.827-7.287c9.596-3.914,17.895-9.184,24.892-15.823c6.984-6.634,12.382-14.636,16.18-24.001
			c3.787-9.359,5.688-20.088,5.688-32.179v-58.318c0-5.209-0.66-9.184-1.957-11.91c-1.307-2.72-2.967-4.737-4.979-6.045
			c-2.018-1.297-4.149-2.072-6.403-2.309c-2.254-0.235-4.325-0.356-6.221-0.356h-305.082v417.446h-92.448V735.092
			c0-6.396,1.183-12.442,3.557-18.136c2.363-5.689,5.628-10.663,9.777-14.934c4.144-4.264,9.068-7.578,14.757-9.953
			c5.688-2.369,11.85-3.555,18.488-3.555h350.951c20.626,0,38.048,3.73,52.271,11.199c14.224,7.464,25.776,16.835,34.669,28.091
			c8.887,11.262,15.29,23.412,19.202,36.443c3.909,13.042,5.864,25.249,5.864,36.625V859.901z"/>
	</g>
	<g>
		<path d="M619.536,251.329c0,21.102-2.612,39.947-7.823,56.537c-5.216,16.595-12.268,31.235-21.157,43.913
			c-8.89,12.685-19.145,23.53-30.757,32.536c-11.617,9.012-23.769,16.417-36.446,22.223c-12.685,5.811-25.484,10.017-38.402,12.624
			c-12.924,2.61-25.068,3.91-36.446,3.91l193.076,166.763h-142.94L305.919,423.071h-66.492v-92.449h209.078
			c11.611-0.944,22.223-3.377,31.823-7.289c9.6-3.91,17.896-9.184,24.891-15.823c6.989-6.634,12.384-14.635,16.177-24.002
			c3.791-9.361,5.69-20.089,5.69-32.179v-58.313c0-5.212-0.655-9.184-1.956-11.913c-1.306-2.722-2.968-4.737-4.978-6.044
			c-2.017-1.3-4.15-2.072-6.401-2.311c-2.254-0.234-4.327-0.356-6.221-0.356H202.448v417.442h-92.449V126.523
			c0-6.401,1.183-12.447,3.556-18.135c2.366-5.689,5.628-10.668,9.777-14.934c4.146-4.267,9.067-7.584,14.756-9.956
			c5.69-2.366,11.851-3.556,18.49-3.556h350.952c20.623,0,38.046,3.734,52.269,11.2c14.223,7.468,25.779,16.834,34.669,28.091
			c8.889,11.26,15.29,23.412,19.201,36.445c3.911,13.041,5.866,25.246,5.866,36.624V251.329z"/>
		<path d="M1247.481,383.604c0,31.056-5.332,59.619-16.005,85.693c-10.662,26.079-25.479,48.597-44.445,67.557
			c-18.967,18.972-41.424,33.723-67.381,44.27c-25.958,10.547-54.224,15.823-84.804,15.823H909.685
			c-30.578,0-58.907-5.276-84.981-15.823c-26.078-10.546-48.598-25.298-67.559-44.27c-18.968-18.96-33.84-41.478-44.625-67.557
			c-10.79-26.074-16.179-54.637-16.179-85.693v-97.427c0-30.813,5.389-59.321,16.179-85.516
			c10.784-26.191,25.656-48.714,44.625-67.559c18.961-18.846,41.481-33.603,67.559-44.269
			c26.074-10.668,54.403-16.001,84.981-16.001h125.162c30.58,0,58.846,5.333,84.804,16.001
			c25.957,10.666,48.414,25.423,67.381,44.269c18.966,18.845,33.783,41.368,44.445,67.559
			c10.673,26.195,16.005,54.703,16.005,85.516V383.604z M1155.033,286.176c0-18.252-2.907-34.787-8.717-49.603
			c-5.809-14.813-13.987-27.496-24.528-38.047c-10.552-10.545-23.236-18.722-38.049-24.534c-14.816-5.807-31.112-8.711-48.893-8.711
			H909.685c-18.017,0-34.434,2.904-49.248,8.711c-14.815,5.812-27.556,13.988-38.222,24.534
			c-10.667,10.551-18.906,23.234-24.712,38.047c-5.811,14.816-8.711,31.351-8.711,49.603v97.427c0,18.255,2.901,34.791,8.711,49.602
			c5.806,14.817,14.045,27.502,24.712,38.046c10.666,10.551,23.406,18.729,38.222,24.536c14.814,5.811,31.231,8.709,49.248,8.709
			h124.453c18.011,0,34.427-2.899,49.244-8.709c14.812-5.807,27.557-13.984,38.225-24.536c10.668-10.544,18.901-23.229,24.71-38.046
			c5.81-14.812,8.717-31.347,8.717-49.602V286.176z"/>
		<path d="M1795.418,589.834H1461.89c-8.529,0-17.72-1.006-27.557-3.022c-9.837-2.012-19.555-5.156-29.155-9.42
			c-9.603-4.265-18.791-9.777-27.558-16.532c-8.771-6.76-16.537-14.938-23.292-24.534c-6.755-9.604-12.146-20.745-16.175-33.426
			c-4.034-12.678-6.045-26.963-6.045-42.848V209.728c0-8.534,1.005-17.718,3.022-27.557c2.011-9.834,5.155-19.558,9.42-29.157
			c4.271-9.601,9.833-18.786,16.714-27.557c6.875-8.766,15.108-16.535,24.715-23.289c9.596-6.757,20.676-12.146,33.245-16.18
			c12.559-4.027,26.782-6.044,42.665-6.044h333.528v92.449H1461.89c-12.085,0-21.336,3.2-27.732,9.602
			c-6.403,6.398-9.602,15.883-9.602,28.446v249.612c0,11.857,3.259,21.041,9.777,27.558c6.519,6.522,15.701,9.778,27.557,9.778
			h333.528V589.834z"/>
		<path d="M203.16,896.877h324.639V688.515h92.449v509.894h-92.449V990.04H203.16v208.369h-92.451V688.515h92.451V896.877z"/>
		<path d="M1189.168,1198.409H855.639c-12.801,0-26.791-2.253-41.958-6.761c-15.176-4.495-29.221-11.909-42.136-22.22
			c-12.924-10.315-23.707-23.704-32.358-40.182c-8.656-16.471-12.979-36.68-12.979-60.626V735.092
			c0-6.396,1.184-12.442,3.556-18.136c2.366-5.689,5.627-10.663,9.778-14.934c4.145-4.264,9.067-7.578,14.757-9.953
			c5.688-2.369,11.851-3.555,18.49-3.555h416.378v92.447H818.656v287.658c0,12.092,3.201,21.336,9.602,27.733
			c6.401,6.403,15.762,9.602,28.09,9.602h332.82V1198.409z M1147.564,990.04H855.639v-93.162h291.926V990.04z"/>
		<path d="M1787.954,859.901c0,21.099-2.615,39.944-7.819,56.537c-5.222,16.592-12.269,31.233-21.16,43.913
			c-8.888,12.685-19.143,23.527-30.756,32.535c-11.618,9.009-23.771,16.417-36.449,22.221c-12.685,5.81-25.485,10.019-38.4,12.624
			c-12.927,2.611-25.066,3.913-36.449,3.913l193.079,166.765h-142.938l-192.722-166.765h-66.491v-92.453h209.072
			c11.613-0.94,22.226-3.374,31.827-7.287c9.596-3.914,17.895-9.184,24.892-15.823c6.984-6.634,12.382-14.636,16.18-24.001
			c3.787-9.359,5.688-20.088,5.688-32.179v-58.318c0-5.209-0.66-9.184-1.957-11.91c-1.307-2.72-2.967-4.737-4.979-6.045
			c-2.018-1.297-4.149-2.072-6.403-2.309c-2.254-0.235-4.325-0.356-6.221-0.356h-305.082v417.446h-92.448V735.092
			c0-6.396,1.183-12.442,3.557-18.136c2.363-5.689,5.628-10.663,9.777-14.934c4.144-4.264,9.068-7.578,14.757-9.953
			c5.688-2.369,11.85-3.555,18.488-3.555h350.951c20.626,0,38.048,3.73,52.271,11.199c14.224,7.464,25.776,16.835,34.669,28.091
			c8.887,11.262,15.29,23.412,19.202,36.443c3.909,13.042,5.864,25.249,5.864,36.625V859.901z"/>
	</g>
</g>
</svg>
